<svg width="14" height="20" viewBox="0 0 14 20" fill="none" xmlns="http://www.w3.org/2000/svg">
<path d="M1.74999 20C1.55297 20.0002 1.35784 19.968 1.17582 19.9052C0.993798 19.8423 0.828468 19.7502 0.689334 19.6339C0.103555 19.1458 0.103555 18.3543 0.689334 17.8662L10.1287 10L0.689334 2.13387C0.103555 1.64572 0.103555 0.854261 0.689334 0.366112C1.27511 -0.121983 2.22486 -0.122092 2.81064 0.366112L13.3107 9.11613C13.45 9.2322 13.5605 9.37 13.6359 9.52166C13.7113 9.67333 13.7501 9.83588 13.7501 10C13.7501 10.1642 13.7113 10.3268 13.6359 10.4784C13.5605 10.6301 13.45 10.7679 13.3107 10.8839L2.81064 19.6339C2.67152 19.7502 2.50619 19.8424 2.32416 19.9052C2.14214 19.968 1.94701 20.0002 1.74999 20Z" fill="white"/>
</svg>
