<svg width="20" height="20" viewBox="0 0 20 20" fill="none" xmlns="http://www.w3.org/2000/svg">
<path d="M9.10412 5.4875L9.97348 2.06774C10.0917 1.60278 9.8051 1.13139 9.33803 1.02247C8.92996 0.927316 8.51303 1.14156 8.35266 1.52877L6.06338 7.05588C5.89075 7.47269 5.80189 7.91943 5.80188 8.37059V10.4506C5.80188 11.0209 5.68758 11.5855 5.46573 12.1109C5.24388 12.6364 4.91899 13.112 4.51025 13.5096" stroke="#1A1A1A" stroke-miterlimit="10" stroke-linecap="round" stroke-linejoin="round"/>
<path d="M7.64686 9.02798L8.46831 6.16146C8.57689 5.78251 8.95074 5.54387 9.34005 5.60493C9.72 5.66457 10 5.992 10 6.37672V12.7926C10 14.418 9.14717 15.9241 7.75358 16.7599M15.4921 13.5118C15.0827 13.1141 14.7572 12.6382 14.535 12.1124C14.3128 11.5866 14.1983 11.0215 14.1983 10.4506V8.37063C14.1983 7.91947 14.1094 7.47273 13.9368 7.05592L13.551 6.12444L11.6474 1.52877C11.4871 1.14156 11.0701 0.927316 10.6621 1.02247C10.195 1.13139 9.90842 1.60278 10.0266 2.06774L10.896 5.48749M6.37794 19L1 16.17L4.07399 13.095L8.17745 17.1999L6.37794 19Z" stroke="#1A1A1A" stroke-miterlimit="10" stroke-linecap="round" stroke-linejoin="round"/>
<path d="M12.3531 9.02799L11.5317 6.16146C11.4231 5.78252 11.0493 5.54387 10.6599 5.60493C10.28 5.66457 10 5.992 10 6.37673V12.7926C10 14.418 10.8528 15.9241 12.2464 16.7599M13.6221 19L19 16.17L15.926 13.095L11.8225 17.1999L13.6221 19Z" stroke="#1A1A1A" stroke-miterlimit="10" stroke-linecap="round" stroke-linejoin="round"/>
</svg>
