<svg width="20" height="20" viewBox="0 0 20 20" fill="none" xmlns="http://www.w3.org/2000/svg">
<path d="M11.6344 9.42734C11.4795 9.27164 11.2285 9.27164 11.0737 9.42738L10.3294 10.1764C10.2241 10.1371 10.1126 10.117 10.0003 10.1171C9.8845 10.1171 9.77355 10.1382 9.67088 10.1766L8.14101 8.63689C7.98622 8.48118 7.73522 8.48118 7.58046 8.63689C7.42567 8.79267 7.42564 9.04527 7.58046 9.20108L9.11047 10.7409C9.07142 10.8468 9.05147 10.9589 9.05157 11.072C9.05157 11.5984 9.47717 12.0268 10.0003 12.0268C10.5235 12.0268 10.9491 11.5985 10.9491 11.072C10.9491 10.9555 10.9282 10.8439 10.8901 10.7406L11.6344 9.99153C11.7892 9.83575 11.7892 9.58316 11.6344 9.42734ZM10.0003 11.3087C9.87052 11.3087 9.76499 11.2024 9.76499 11.0719C9.76499 10.9413 9.87056 10.8351 10.0003 10.8351C10.0626 10.8352 10.1224 10.8602 10.1666 10.9045C10.2107 10.9489 10.2355 11.0091 10.2355 11.0719C10.2355 11.2025 10.13 11.3087 10.0003 11.3087Z" fill="#1A1A1A" stroke="#1A1A1A" stroke-width="0.2"/>
<path d="M14.6797 5.02394L15.1288 4.37847L16.9293 5.64726C16.9719 5.67732 17.02 5.69864 17.0709 5.70999C17.1217 5.72134 17.1742 5.72249 17.2255 5.71339C17.2767 5.7043 17.3257 5.68514 17.3696 5.65699C17.4135 5.62884 17.4515 5.59227 17.4813 5.54935C18.3901 4.24326 18.0735 2.43662 16.7757 1.52204C15.4779 0.607382 13.6826 0.926037 12.774 2.23212C12.6484 2.41258 12.692 2.66131 12.8713 2.78766L14.4794 3.92088L14.0302 4.56652C12.8604 3.82986 11.4789 3.40328 10 3.40328C8.52123 3.40328 7.13977 3.82986 5.96987 4.56652L5.52062 3.92088L7.12877 2.78766C7.30808 2.66127 7.35168 2.41258 7.22613 2.23212C6.31739 0.926002 4.52218 0.607452 3.22432 1.522C1.92649 2.43652 1.60992 4.24316 2.51865 5.54928C2.5485 5.5922 2.58646 5.62878 2.63036 5.65693C2.67426 5.68508 2.72324 5.70425 2.77451 5.71334C2.82577 5.72244 2.87831 5.72127 2.92913 5.70992C2.97995 5.69857 3.02805 5.67725 3.07068 5.64719L4.8712 4.3784L5.32031 5.02387C3.53198 6.42853 2.37986 8.61725 2.37986 11.0719C2.37986 13.7413 3.74242 16.0961 5.80407 17.47L5.17631 18.3722C5.05073 18.5526 5.09436 18.8014 5.27364 18.9278C5.34011 18.9748 5.41939 19 5.50064 19C5.62556 19 5.74856 18.9407 5.82566 18.8298L6.48892 17.8766C7.54032 18.4282 8.7345 18.7407 9.99998 18.7407C11.2653 18.7407 12.4594 18.4283 13.5107 17.8768L14.1738 18.8298C14.2103 18.8825 14.259 18.9254 14.3156 18.955C14.3722 18.9847 14.435 19.0001 14.4988 19C14.5773 19 14.6567 18.9766 14.7258 18.9278C14.9051 18.8014 14.9487 18.5527 14.8231 18.3723L14.1956 17.4703C16.2574 16.0964 17.6201 13.7415 17.6201 11.072C17.6202 8.61724 16.4681 6.42853 14.6797 5.02394ZM13.6817 2.38484C14.3835 1.70193 15.4923 1.59158 16.3211 2.17549C17.1498 2.75953 17.426 3.84589 17.0283 4.74304L13.6817 2.38484ZM2.97178 4.74308C2.57409 3.84593 2.85025 2.75953 3.67905 2.17552C4.02773 1.9292 4.44347 1.7972 4.86949 1.79756C5.39968 1.79756 5.92355 2.00058 6.31837 2.38488L2.97178 4.74308ZM10 17.9428C6.23537 17.9428 3.17261 14.8605 3.17261 11.0719C3.17261 7.28328 6.23537 4.20107 10 4.20107C13.7647 4.20107 16.8275 7.28332 16.8275 11.0719C16.8275 14.8605 13.7647 17.9428 10 17.9428Z" fill="#1A1A1A" stroke="#1A1A1A" stroke-width="0.2"/>
<path d="M10.0001 5.43213C6.91001 5.43213 4.396 7.96214 4.396 11.0719C4.396 14.1817 6.91001 16.7117 10.0001 16.7117C13.0902 16.7117 15.6042 14.1817 15.6042 11.0719C15.6042 7.96214 13.0902 5.43213 10.0001 5.43213ZM13.7255 14.2568L13.4576 13.9873C13.3028 13.8316 13.0518 13.8316 12.8971 13.9873C12.7423 14.1431 12.7423 14.3957 12.8971 14.5514L13.1649 14.821C12.4057 15.471 11.4476 15.8922 10.3965 15.9774V15.5938C10.3965 15.3735 10.219 15.1949 10.0001 15.1949C9.78119 15.1949 9.60372 15.3735 9.60372 15.5938V15.9774C8.55263 15.8922 7.5945 15.471 6.83532 14.821L7.10316 14.5514C7.25795 14.3956 7.25795 14.143 7.10316 13.9873C6.94837 13.8316 6.69737 13.8316 6.54254 13.9873L6.2747 14.2568C5.62881 13.4929 5.21027 12.5286 5.12555 11.4708H5.50675C5.72568 11.4708 5.90315 11.2922 5.90315 11.0719C5.90315 10.8516 5.72568 10.673 5.50675 10.673H5.12555C5.21027 9.61521 5.62881 8.65099 6.2747 7.88697L6.54254 8.15652C6.61995 8.23439 6.7214 8.27334 6.82281 8.27334C6.92423 8.27334 7.02571 8.23435 7.10309 8.15652C7.25788 8.00074 7.25788 7.74814 7.10309 7.59233L6.83525 7.32279C7.5944 6.67279 8.55256 6.25158 9.60365 6.16633V6.54999C9.60365 6.77028 9.78112 6.9489 10 6.9489C10.219 6.9489 10.3964 6.77028 10.3964 6.54999V6.16633C11.4475 6.25158 12.4057 6.67279 13.1648 7.32279L12.897 7.59233C12.7422 7.74811 12.7422 8.0007 12.897 8.15652C12.9744 8.23439 13.0759 8.27334 13.1773 8.27334C13.2787 8.27334 13.3802 8.23435 13.4576 8.15652L13.7254 7.88701C14.3713 8.65099 14.7898 9.61521 14.8745 10.673H14.4933C14.2744 10.673 14.0969 10.8516 14.0969 11.0719C14.0969 11.2922 14.2744 11.4708 14.4933 11.4708H14.8745C14.7899 12.5286 14.3713 13.4928 13.7255 14.2568Z" fill="#1A1A1A" stroke="#1A1A1A" stroke-width="0.2"/>
</svg>
