<!DOCTYPE svg PUBLIC "-//W3C//DTD SVG 1.1//EN" "http://www.w3.org/Graphics/SVG/1.1/DTD/svg11.dtd">
<!-- Uploaded to: SVG Repo, www.svgrepo.com, Transformed by: SVG Repo Mixer Tools -->
<svg width="64px" height="64px" viewBox="0 0 24 24" fill="none" xmlns="http://www.w3.org/2000/svg">
<g id="SVGRepo_bgCarrier" stroke-width="0"/>
<g id="SVGRepo_tracerCarrier" stroke-linecap="round" stroke-linejoin="round"/>
<g id="SVGRepo_iconCarrier"> <path d="M3 10V14C3 15.8856 3 16.8284 3.58579 17.4142C4.17157 18 5.11438 18 7 18H17C18.8856 18 19.8284 18 20.4142 17.4142C21 16.8284 21 15.8856 21 14V9C21 6.17157 21 4.75736 20.1213 3.87868C19.2426 3 17.8284 3 15 3H9C6.17157 3 4.75736 3 3.87868 3.87868C3.38879 4.36857 3.17203 5.02491 3.07612 6" stroke="#141414" stroke-width="1.5" stroke-linecap="round"/> <path d="M22 21H16M2 21H12" stroke="#141414" stroke-width="1.5" stroke-linecap="round"/> <path d="M15 15H9" stroke="#141414" stroke-width="1.5" stroke-linecap="round"/> </g>
</svg>