<svg width="20" height="20" viewBox="0 0 20 20" fill="none" xmlns="http://www.w3.org/2000/svg">
<path d="M6.1493 5.54923V4.07024C6.1493 3.48161 6.63062 3 7.21891 3H12.7809C13.3692 3 13.8505 3.48161 13.8505 4.07024V5.54923M17.336 10.3321V16.0036C17.336 16.5515 16.8878 17 16.3402 17H3.65967C3.11205 17 2.66382 16.5516 2.66382 16.0036V10.3654" stroke="#1A1A1A" stroke-width="1.2" stroke-miterlimit="22.9256" stroke-linecap="round" stroke-linejoin="round"/>
<path d="M8.6722 12.0096C5.16053 11.8087 2 10.8039 2 8.9953V6.63716C2 6.08835 2.44734 5.64072 2.99585 5.64072H17.0042C17.5526 5.64072 18 6.08838 18 6.63716V8.9953C18 10.8153 14.7995 11.8213 11.2614 12.0133" stroke="#1A1A1A" stroke-width="1.2" stroke-miterlimit="22.9256" stroke-linecap="round" stroke-linejoin="round"/>
<path fill-rule="evenodd" clip-rule="evenodd" d="M8.77173 11.0213H11.2282V12.1672C11.2282 12.7975 10.7128 13.3131 10.0829 13.3131H9.91696C9.28708 13.3131 8.77173 12.7975 8.77173 12.1672V11.0213Z" stroke="#1A1A1A" stroke-width="1.2" stroke-miterlimit="22.9256" stroke-linecap="round" stroke-linejoin="round"/>
</svg>
