<svg width="14" height="19" viewBox="0 0 14 19" fill="none" xmlns="http://www.w3.org/2000/svg">
<path d="M7 0.999969C3.6916 0.999969 1 3.75991 1 7.15231C1 8.29849 1.30963 9.41706 1.89563 10.3875L6.65847 18.2576C6.70332 18.3317 6.76588 18.3929 6.84022 18.4353C6.91456 18.4777 6.99823 18.5 7.0833 18.5H7.08727C7.17301 18.4993 7.25713 18.476 7.33156 18.4324C7.40599 18.3887 7.46822 18.3262 7.51227 18.2507L12.1537 10.3044C12.7074 9.35444 13 8.26449 13 7.15231C13 3.75991 10.3084 0.999969 7 0.999969ZM11.2955 9.77793L7.07573 17.0024L2.74557 9.84725C2.2578 9.03951 1.99333 8.10764 1.99333 7.15231C1.99333 4.32531 4.243 2.01852 7 2.01852C9.757 2.01852 12.0033 4.32531 12.0033 7.15231C12.0033 8.0793 11.7563 8.98735 11.2955 9.77793Z" fill="#1A1A1A" stroke="#1A1A1A" stroke-width="0.2"/>
<path d="M7 4.07617C5.3458 4.07617 4 5.45614 4 7.15234C4 8.83771 5.3239 10.2285 7 10.2285C8.69677 10.2285 10 8.81918 10 7.15234C10 5.45614 8.6542 4.07617 7 4.07617ZM7 9.20996C5.89143 9.20996 4.99333 8.28598 4.99333 7.15234C4.99333 6.02154 5.8972 5.09473 7 5.09473C8.1028 5.09473 9.00333 6.02154 9.00333 7.15234C9.00333 8.26944 8.12613 9.20996 7 9.20996Z" fill="#1A1A1A" stroke="#1A1A1A" stroke-width="0.2"/>
</svg>
