<svg width="20" height="20" viewBox="0 0 20 20" fill="none" xmlns="http://www.w3.org/2000/svg">
<g clip-path="url(#clip0_935_9745)">
<path d="M13.377 13.0217C13.3049 12.9981 13.2564 12.929 13.2564 12.8496C13.2564 11.0344 11.7956 9.55763 10 9.55763C8.2044 9.55763 6.74359 11.0344 6.74359 12.8497C6.74359 12.9277 6.69402 12.9985 6.62304 13.0217C5.3893 13.4258 4.56035 14.5788 4.56035 15.8907C4.56035 18.4255 7.47431 19.8128 9.40948 18.2444C9.48335 18.1844 9.64303 17.9386 10 17.9386C10.3529 17.9386 10.5153 18.1824 10.5858 18.2399C12.5233 19.8174 15.4397 18.425 15.4397 15.8907C15.4397 14.5788 14.6107 13.4258 13.377 13.0217ZM11.2818 17.4459C10.5852 16.6933 9.40333 16.6992 8.71392 17.4499C7.45768 18.4271 5.61514 17.5177 5.61514 15.8906C5.61514 15.0359 6.15212 14.2858 6.9514 14.024C7.458 13.8581 7.79838 13.3861 7.79838 12.8496C7.79838 11.6159 8.78602 10.6123 10 10.6123C11.214 10.6123 12.2016 11.6159 12.2016 12.8497C12.2016 13.3861 12.542 13.858 13.0486 14.024C13.8479 14.2858 14.3849 15.0359 14.3849 15.8906C14.3849 17.5215 12.5362 18.4279 11.2818 17.4459ZM5.96199 9.53345C5.52978 7.98843 4.09941 7.04368 2.75701 7.42903C1.42547 7.81132 0.692668 9.37514 1.12347 10.9151C1.35111 11.7288 1.87142 12.413 2.55092 12.7924C4.54952 13.908 6.63059 11.9234 5.96199 9.53345ZM3.06515 11.8715C1.7257 11.1237 1.72145 8.82364 3.04814 8.44276C3.83114 8.21804 4.67752 8.85711 4.94622 9.81754C5.3618 11.3034 4.23849 12.5267 3.06515 11.8715ZM17.243 7.42903C15.8957 7.04217 14.4686 7.99424 14.038 9.53345C13.6072 11.0734 14.34 12.6371 15.6716 13.0194C17.019 13.4063 18.4459 12.4541 18.8765 10.9151C19.3073 9.37514 18.5745 7.81132 17.243 7.42903ZM17.8607 10.631C17.5888 11.603 16.737 12.2281 15.9626 12.0057C15.1863 11.7828 14.7787 10.8012 15.0538 9.81754C15.3241 8.85127 16.1733 8.2192 16.9519 8.44276C17.7282 8.66565 18.1359 9.64725 17.8607 10.631ZM15.876 4.46103C15.876 0.529192 10.5354 -0.557312 10.5354 4.46103C10.5354 9.46549 15.876 8.40518 15.876 4.46103ZM12.98 2.15253C13.9952 2.15253 14.8212 3.18813 14.8212 4.46107C14.8212 5.734 13.9952 6.7696 12.98 6.7696C11.6904 6.7696 11.5902 5.00265 11.5902 4.46107C11.5902 3.91949 11.6904 2.15253 12.98 2.15253ZM9.46465 4.46103C9.46465 -0.543425 4.12399 0.516887 4.12399 4.46103C4.12399 8.39287 9.46465 9.47938 9.46465 4.46103ZM7.02005 2.15253C8.30962 2.15253 8.40982 3.91949 8.40982 4.46107C8.40982 5.00265 8.30959 6.7696 7.02005 6.7696C6.00478 6.7696 5.17875 5.734 5.17875 4.46107C5.17875 3.18813 6.00478 2.15253 7.02005 2.15253Z" fill="#1A1A1A" stroke="#1A1A1A" stroke-width="0.2"/>
</g>
<defs>
<clipPath id="clip0_935_9745">
<rect width="20" height="20" fill="white"/>
</clipPath>
</defs>
</svg>
