<svg width="16" height="18" viewBox="0 0 16 18" fill="none" xmlns="http://www.w3.org/2000/svg">
<path d="M0.912207 16.9728C1.28714 17.496 2.00247 17.6588 2.56921 17.3293L6.05971 15.299C6.30761 15.1547 6.41317 14.8571 6.32591 14.5938L6.27672 14.484L4.93318 12.14C4.85467 12.003 4.72504 11.9032 4.57342 11.8622C4.45972 11.8315 4.33997 11.8355 4.23006 11.8729L4.12301 11.9214L0.632504 13.9517C0.0279499 14.3034 -0.179655 15.0825 0.169547 15.6915L0.841799 16.863L0.912207 16.9728ZM1.97604 16.2947C1.9477 16.3112 1.91382 16.3084 1.88924 16.2899L1.86802 16.2656L1.19673 15.0941C1.1749 15.056 1.18781 15.0073 1.22567 14.9853L4.20209 13.2542L4.95247 14.5646L1.97604 16.2947Z" fill="#1A1A1A"/>
<path d="M5.32043 15.1785C5.50328 15.3861 5.81175 15.4431 6.05971 15.299L15.3676 9.88626L15.4765 9.81534C15.9616 9.463 16.1345 8.81247 15.8893 8.26302L15.8305 8.14645L15.1592 6.97493C14.8319 6.40382 14.1312 6.18457 13.5466 6.44939L13.4318 6.50865L4.12301 11.9214C3.83967 12.0862 3.74306 12.451 3.90648 12.7364L5.25002 15.0804L5.32043 15.1785ZM5.2288 12.6567L14.024 7.54223L14.0539 7.53252C14.0845 7.52861 14.1156 7.54298 14.132 7.57138L14.8043 8.74387L14.8139 8.77399C14.8164 8.79442 14.8109 8.81485 14.7985 8.8313L14.7754 8.85267L5.97918 13.9672L5.2288 12.6567Z" fill="#1A1A1A"/>
<path d="M13.4654 10.4424C13.6482 10.65 13.9562 10.707 14.2042 10.5629C14.4522 10.4186 14.5577 10.1211 14.4704 9.85763L14.4212 9.74786L13.0776 7.40383C12.914 7.11848 12.5518 7.02063 12.2684 7.18526C11.9851 7.35002 11.888 7.71486 12.0514 8.00028L13.3949 10.3443L13.4654 10.4424Z" fill="#1A1A1A"/>
<path d="M12.9413 5.74009C13.0934 5.90442 13.3273 5.97091 13.546 5.90426C13.7959 5.82805 13.9675 5.59608 13.9675 5.33307V4.99502C13.9675 3.15838 12.6169 1.63992 10.8618 1.3901C10.6228 0.586265 9.88394 8.81675e-05 9.00808 0C8.56124 0 8.1551 0.154462 7.8314 0.407994C7.4359 0.0987465 6.91974 -0.0618946 6.36344 0.0223426L6.19079 0.0553707C5.53672 0.212326 5.00484 0.719582 4.80771 1.3629L4.77299 1.49307C4.55811 2.42923 5.02228 3.28356 5.76352 3.67292C5.93502 4.57283 6.72011 5.25305 7.66357 5.25341C7.83392 5.25366 8.00235 5.23027 8.16511 5.18639C8.51674 5.63681 9.06064 5.92943 9.67936 5.92952C10.4144 5.92952 11.0471 5.51759 11.374 4.91536H11.4916L11.6971 4.92799C11.9004 4.95339 12.0979 5.01657 12.2796 5.1145C12.522 5.24518 12.729 5.43392 12.8815 5.66432L12.9413 5.74009ZM9.67936 4.73662C9.35699 4.7365 9.07948 4.5275 8.97528 4.2276C8.91453 4.05275 8.77666 3.91564 8.60203 3.85749C8.42758 3.79957 8.23619 3.82661 8.08409 3.93035C7.9606 4.01464 7.81468 4.05972 7.6655 4.05955C7.25834 4.05955 6.92617 3.73327 6.91416 3.32613C6.9155 3.313 6.91737 3.29646 6.91802 3.27756L6.91223 3.17361C6.8793 2.93738 6.70741 2.73882 6.47146 2.67819C6.08966 2.57982 5.8276 2.19791 5.92748 1.76215L5.95738 1.66598C6.04282 1.44731 6.23759 1.27191 6.46567 1.21718L6.6007 1.19581C6.90991 1.17409 7.17419 1.33886 7.31153 1.59312L7.35494 1.66112C7.46562 1.81277 7.64234 1.90397 7.83236 1.90397C8.04939 1.90394 8.24945 1.78512 8.35319 1.59312C8.4839 1.35115 8.72923 1.19387 9.00808 1.19387C9.42261 1.19398 9.75821 1.53215 9.75845 1.94963C9.75845 2.27926 10.0243 2.54705 10.3516 2.54705C11.3104 2.54712 12.1369 3.10744 12.5323 3.91966C12.2559 3.81067 11.9641 3.74478 11.6672 3.72635L11.4916 3.72149H10.9756C10.7057 3.72153 10.4695 3.90512 10.4018 4.16834C10.317 4.49792 10.0243 4.73662 9.67936 4.73662Z" fill="#1A1A1A"/>
</svg>
