<svg width="20" height="20" viewBox="0 0 20 20" fill="none" xmlns="http://www.w3.org/2000/svg">
<path d="M18.64 13.6381C18.5705 13.4862 18.4714 13.3496 18.3486 13.2364C18.2258 13.1231 18.0816 13.0354 17.9246 12.9783C17.7676 12.9212 17.6007 12.896 17.4339 12.904C17.267 12.912 17.1033 12.9532 16.9525 13.025L12.9756 14.6281V14.5775C12.9263 14.1968 12.7395 13.8472 12.4505 13.5944C12.1615 13.3417 11.7902 13.2032 11.4062 13.205C10.7594 13.205 9.98313 13.0363 7.76125 12.1475C6.63625 11.7763 4.94875 11.9394 4.11063 12.0519V11.9844C4.1099 11.9278 4.09793 11.8718 4.07542 11.8199C4.0529 11.7679 4.02028 11.7209 3.97946 11.6817C3.93864 11.6424 3.89043 11.6117 3.83763 11.5912C3.78483 11.5708 3.72848 11.561 3.67188 11.5625H1.42188C1.31044 11.564 1.20398 11.6089 1.12518 11.6877C1.04637 11.7665 1.00146 11.8729 1 11.9844V17.9131C1 18.025 1.04445 18.1323 1.12356 18.2114C1.20268 18.2906 1.30999 18.335 1.42188 18.335H3.67188C3.74892 18.3341 3.82425 18.3122 3.88969 18.2715C3.95514 18.2309 4.0082 18.1731 4.04312 18.1044C5.55999 18.3573 7.09531 18.4834 8.63312 18.4813C10.9169 18.4813 13.2063 18.1944 14.5675 17.4125C16.3056 16.4169 17.9425 15.365 17.9425 15.365C18.1022 15.2981 18.2471 15.2002 18.3688 15.0769C18.4904 14.9537 18.5865 14.8076 18.6513 14.647C18.7162 14.4864 18.7486 14.3146 18.7466 14.1414C18.7447 13.9683 18.7085 13.7972 18.64 13.6381ZM3.25 17.4913H1.84375V12.4288H3.25V17.4913ZM17.515 14.6338C17.515 14.6338 15.8781 15.6913 14.14 16.6813C12.0306 17.8906 7.08063 17.8063 4.0825 17.2438V12.9069C4.79688 12.8 6.45625 12.6088 7.4575 12.9406C9.7975 13.8744 10.6244 14.0656 11.395 14.0656C11.5729 14.0627 11.7457 14.1253 11.8806 14.2414C12.0154 14.3576 12.1028 14.5192 12.1263 14.6956C12.1288 14.7443 12.1288 14.7932 12.1263 14.8419H8.73438C8.62249 14.8419 8.51518 14.8863 8.43606 14.9654C8.35695 15.0446 8.3125 15.1519 8.3125 15.2638C8.3125 15.3756 8.35695 15.4829 8.43606 15.5621C8.51518 15.6412 8.62249 15.6856 8.73438 15.6856H12.565C12.6187 15.685 12.6719 15.6755 12.7225 15.6575L17.2731 13.8238C17.5994 13.6944 17.7962 13.8238 17.8694 13.9981C17.9425 14.1725 17.9144 14.4313 17.515 14.6338ZM8.83 9.00875H9.60625V8.32813H10.585V7.72625H9.60625V7.19188H10.2869C10.5351 7.19976 10.7823 7.15569 11.0125 7.0625C11.1982 6.98421 11.365 6.86723 11.5019 6.71938C11.621 6.57943 11.7143 6.41945 11.7775 6.24688C11.8328 6.0838 11.8613 5.91283 11.8619 5.74063C11.8616 5.49996 11.8098 5.26214 11.71 5.04313C11.6119 4.80771 11.4402 4.61038 11.2206 4.48063C10.9345 4.32608 10.6117 4.2522 10.2869 4.26688H8.83V6.46625H8.3125V7.19188H8.83V7.72625H8.3125V8.32813H8.83V9.00875ZM9.60625 5.015H10.3263C10.485 5.00555 10.6426 5.04693 10.7762 5.13313C10.8786 5.20373 10.9571 5.30377 11.0013 5.42C11.0402 5.52446 11.0611 5.63478 11.0631 5.74625C11.0624 5.86203 11.0395 5.9766 10.9956 6.08375C10.9443 6.19596 10.8624 6.29147 10.7594 6.35938C10.6296 6.43953 10.4786 6.47873 10.3263 6.47188H9.60625V5.015ZM9.85938 11.2813C10.7772 11.2813 11.6744 11.0091 12.4376 10.4992C13.2007 9.98925 13.7955 9.26448 14.1468 8.41652C14.498 7.56855 14.5899 6.63548 14.4108 5.73529C14.2318 4.83509 13.7898 4.00821 13.1408 3.35921C12.4918 2.71021 11.6649 2.26823 10.7647 2.08917C9.86452 1.91011 8.93145 2.00201 8.08349 2.35325C7.23552 2.70449 6.51076 3.29929 6.00084 4.06243C5.49092 4.82558 5.21875 5.7228 5.21875 6.64063C5.22024 7.87094 5.70964 9.05044 6.5796 9.9204C7.44956 10.7904 8.62906 11.2798 9.85938 11.2813ZM9.85938 2.84375C10.6103 2.84375 11.3444 3.06643 11.9688 3.48364C12.5932 3.90085 13.0799 4.49384 13.3672 5.18763C13.6546 5.88141 13.7298 6.64484 13.5833 7.38136C13.4368 8.11788 13.0752 8.79442 12.5442 9.32542C12.0132 9.85643 11.3366 10.218 10.6001 10.3645C9.86359 10.511 9.10016 10.4359 8.40637 10.1485C7.71259 9.86111 7.11959 9.37445 6.70239 8.75006C6.28518 8.12567 6.0625 7.39158 6.0625 6.64063C6.06399 5.63409 6.46449 4.6692 7.17622 3.95747C7.88795 3.24574 8.85284 2.84524 9.85938 2.84375Z" fill="#1A1A1A" stroke="#1A1A1A" stroke-width="0.2"/>
</svg>
