<svg viewBox="0 0 20 20" xmlns="http://www.w3.org/2000/svg" xmlns:xlink="http://www.w3.org/1999/xlink" width="20.000000" height="20.000000" fill="none">
	<rect id="Иконки привычек" width="20.000000" height="20.000000" x="0.000000" y="0.000000" fill="rgb(255,255,255)" fill-opacity="0" />
	<g id="Group">
		<path id="Vector" d="M6.14954 5.54923L6.14954 4.07024C6.14954 3.48161 6.63087 3 7.21915 3L12.7812 3C13.3695 3 13.8508 3.48161 13.8508 4.07024L13.8508 5.54923M17.3363 10.3321L17.3363 16.0036C17.3363 16.5515 16.888 17 16.3404 17L3.65991 17C3.11229 17 2.66406 16.5516 2.66406 16.0036L2.66406 10.3654" fill-rule="evenodd" stroke="rgb(26.2356,26.2356,26.2356)" stroke-linecap="round" stroke-linejoin="round" stroke-width="1.20000005" />
		<path id="Vector" d="M8.6722 12.0097C5.16053 11.8088 2 10.804 2 8.99533L2 6.63719C2 6.08838 2.44734 5.64075 2.99585 5.64075L17.0042 5.64075C17.5526 5.64075 18 6.08842 18 6.63719L18 8.99533C18 10.8153 14.7995 11.8213 11.2614 12.0134" fill-rule="evenodd" stroke="rgb(26.2356,26.2356,26.2356)" stroke-linecap="round" stroke-linejoin="round" stroke-width="1.20000005" />
		<path id="Vector" d="M11.2284 11.0213L11.2284 12.1672C11.2284 12.7975 10.7131 13.3131 10.0832 13.3131L9.9172 13.3131C9.28732 13.3131 8.77197 12.7975 8.77197 12.1672L8.77197 11.0213L11.2284 11.0213Z" fill-rule="evenodd" stroke="rgb(26.2356,26.2356,26.2356)" stroke-linecap="round" stroke-linejoin="round" stroke-width="1.20000005" />
	</g>
</svg>
