<svg width="11" height="10" viewBox="0 0 11 10" fill="none" xmlns="http://www.w3.org/2000/svg">
<path d="M2.348 10V0.199999H6.198C7.458 0.199999 8.452 0.479999 9.18 1.04C9.908 1.59067 10.272 2.398 10.272 3.462C10.272 4.526 9.908 5.338 9.18 5.898C8.452 6.458 7.458 6.738 6.198 6.738H3.132L3.762 6.08V10H2.348ZM3.762 6.22L3.132 5.576H6.198C7.05667 5.576 7.71467 5.394 8.172 5.03C8.62933 4.666 8.858 4.148 8.858 3.476C8.858 2.81333 8.62933 2.30467 8.172 1.95C7.71467 1.59533 7.05667 1.418 6.198 1.418H3.132L3.762 0.717999V6.22ZM0.92 8.362V7.564H6.87V8.362H0.92Z" fill="#8389BE"/>
</svg>
