<svg width="22" height="21" viewBox="0 0 22 21" fill="none" xmlns="http://www.w3.org/2000/svg">
<path d="M4.125 0.5H17.875C19.6009 0.5 21 1.8991 21 3.625V13.625C21 15.3509 19.6009 16.75 17.875 16.75H5.63125L2.06875 20.3188C2.01035 20.3767 1.94109 20.4225 1.86494 20.4536C1.7888 20.4847 1.70725 20.5005 1.625 20.5C1.2798 20.5 1 20.2202 1 19.875V3.625C1 1.8991 2.3991 0.5 4.125 0.5ZM2.25 18.3688L4.93125 15.6813C4.98965 15.6233 5.0589 15.5775 5.13505 15.5464C5.2112 15.5153 5.29274 15.4995 5.375 15.5H17.875C18.9105 15.5 19.75 14.6605 19.75 13.625V3.625C19.75 2.58945 18.9105 1.75 17.875 1.75H4.125C3.08945 1.75 2.25 2.58945 2.25 3.625V18.3688Z" fill="#A0A0A0" stroke="#A0A0A0" stroke-width="0.6" stroke-linejoin="round"/>
<path d="M11 9.875C10.3096 9.875 9.75 9.31536 9.75 8.625C9.75 7.93464 10.3096 7.375 11 7.375C11.6904 7.375 12.25 7.93464 12.25 8.625C12.25 9.31536 11.6904 9.875 11 9.875Z" fill="#A0A0A0" stroke="#A0A0A0" stroke-width="0.6" stroke-linejoin="round"/>
<path d="M6.625 9.875C5.93464 9.875 5.375 9.31536 5.375 8.625C5.375 7.93464 5.93464 7.375 6.625 7.375C7.31536 7.375 7.875 7.93464 7.875 8.625C7.875 9.31536 7.31536 9.875 6.625 9.875Z" fill="#A0A0A0" stroke="#A0A0A0" stroke-width="0.6" stroke-linejoin="round"/>
<path d="M15.375 9.875C14.6846 9.875 14.125 9.31536 14.125 8.625C14.125 7.93464 14.6846 7.375 15.375 7.375C16.0654 7.375 16.625 7.93464 16.625 8.625C16.625 9.31536 16.0654 9.875 15.375 9.875Z" fill="#A0A0A0" stroke="#A0A0A0" stroke-width="0.6" stroke-linejoin="round"/>
</svg>
