<svg width="17.999023" height="18.000061" viewBox="0 0 17.999 18.0001" fill="none" xmlns="http://www.w3.org/2000/svg" xmlns:xlink="http://www.w3.org/1999/xlink">
	<desc>
			Created with Pixso.
	</desc>
	<defs/>
	<path id="Vector (Stroke)" d="M16.29 1.23L16.53 1.47L9.28 8.76L17 16.52L16.52 17L8.81 9.23L1.47 16.62L1.23 16.38L1 16.14L8.33 8.76L1.46 1.85L1.93 1.38L8.81 8.29L16.06 1L16.29 1.23Z" fill="#3D3D3D" fill-opacity="1.000000" fill-rule="evenodd"/>
	<path id="Vector (Stroke)" d="M16.53 1.47L9.28 8.76L17 16.52L16.52 17L8.81 9.23L1.47 16.62L1.23 16.38L1 16.14L8.33 8.76L1.46 1.85L1.93 1.38L8.81 8.29L16.06 1L16.29 1.23L16.53 1.47Z" stroke="#3D3D3D" stroke-opacity="1.000000" stroke-width="2.000000" stroke-linejoin="round"/>
</svg>
