<svg width="22" height="23" viewBox="0 0 22 23" fill="none" xmlns="http://www.w3.org/2000/svg">
<path fill-rule="evenodd" clip-rule="evenodd" d="M12 20.044H2.45C2.42375 20.0441 2.39776 20.0389 2.37354 20.0287C2.34933 20.0186 2.32739 20.0037 2.309 19.985C2.29027 19.9666 2.2754 19.9447 2.26527 19.9205C2.25514 19.8962 2.24995 19.8703 2.25 19.844V18.394C2.25 17.563 2.843 16.831 3.757 16.209C5.389 15.095 8.03 14.394 11 14.394C11.1989 14.394 11.3897 14.315 11.5303 14.1743C11.671 14.0337 11.75 13.8429 11.75 13.644C11.75 13.4451 11.671 13.2543 11.5303 13.1137C11.3897 12.973 11.1989 12.894 11 12.894C7.678 12.894 4.737 13.724 2.911 14.97C1.518 15.92 0.75 17.127 0.75 18.394V19.844C0.75 20.2949 0.929107 20.7273 1.24792 21.0461C1.56673 21.3649 1.99913 21.544 2.45 21.544H12C12.1989 21.544 12.3897 21.465 12.5303 21.3243C12.671 21.1837 12.75 20.9929 12.75 20.794C12.75 20.5951 12.671 20.4043 12.5303 20.2637C12.3897 20.123 12.1989 20.044 12 20.044ZM11 1.03101C9.54155 1.0318 8.14307 1.61152 7.11179 2.6428C6.08051 3.67407 5.50079 5.07256 5.5 6.53101C5.5 9.56701 7.964 12.031 11 12.031C14.036 12.031 16.5 9.56701 16.5 6.53101C16.5 3.49601 14.036 1.03101 11 1.03101ZM11 2.53101C13.208 2.53101 15 4.32401 15 6.53101C15 8.73901 13.208 10.531 11 10.531C8.792 10.531 7 8.73901 7 6.53101C7 4.32401 8.792 2.53101 11 2.53101Z" fill="#A0A0A0" stroke="#A0A0A0" stroke-width="0.2" stroke-linejoin="round"/>
<path fill-rule="evenodd" clip-rule="evenodd" d="M13.125 13.344C12.3433 14.1441 11.9086 15.2202 11.9151 16.3388C11.9216 17.4573 12.3689 18.5283 13.1598 19.3192C13.9508 20.1102 15.0217 20.5574 16.1403 20.5639C17.2589 20.5705 18.3349 20.1357 19.135 19.354C19.9321 18.557 20.38 17.4761 20.3801 16.3489C20.3802 15.2217 19.9325 14.1406 19.1355 13.3435C18.3386 12.5464 17.2576 12.0985 16.1304 12.0984C15.0032 12.0984 13.9221 12.547 13.125 13.344ZM14.185 14.404C14.7012 13.8887 15.4007 13.5993 16.13 13.5993C16.8594 13.5993 17.5589 13.8887 18.075 14.404C18.5902 14.92 18.8796 15.6194 18.8796 16.3485C18.8796 17.0777 18.5902 17.777 18.075 18.293C17.5589 18.8083 16.8594 19.0977 16.13 19.0977C15.4007 19.0977 14.7012 18.8083 14.185 18.293C13.6698 17.777 13.3805 17.0777 13.3805 16.3485C13.3805 15.6194 13.6698 14.92 14.185 14.404Z" fill="#A0A0A0" stroke="#A0A0A0" stroke-width="0.2" stroke-linejoin="round"/>
<path fill-rule="evenodd" clip-rule="evenodd" d="M18.2511 19.53L20.4701 21.749C20.5397 21.8186 20.6224 21.8738 20.7134 21.9114C20.8044 21.9491 20.9019 21.9684 21.0004 21.9684C21.0989 21.9683 21.1964 21.9489 21.2874 21.9112C21.3783 21.8734 21.461 21.8182 21.5306 21.7485C21.6002 21.6788 21.6554 21.5961 21.693 21.5051C21.7306 21.4141 21.75 21.3166 21.75 21.2181C21.7499 21.1197 21.7305 21.0222 21.6927 20.9312C21.655 20.8402 21.5997 20.7576 21.5301 20.688L19.3121 18.47C19.1707 18.3333 18.9813 18.2576 18.7846 18.2592C18.588 18.2609 18.3998 18.3396 18.2607 18.4786C18.1216 18.6176 18.0426 18.8057 18.0408 19.0023C18.039 19.199 18.1145 19.3885 18.2511 19.53Z" fill="#A0A0A0" stroke="#A0A0A0" stroke-width="0.2" stroke-linejoin="round"/>
</svg>
