<svg width="24" height="24" viewBox="0 0 24 24" fill="none" xmlns="http://www.w3.org/2000/svg">
<path d="M17.25 22C17.447 22.0002 17.6422 21.968 17.8242 21.9052C18.0062 21.8423 18.1715 21.7502 18.3107 21.6339C18.8964 21.1458 18.8964 20.3543 18.3107 19.8662L8.87131 12L18.3107 4.13387C18.8964 3.64572 18.8964 2.85426 18.3107 2.36611C17.7249 1.87802 16.7751 1.87791 16.1894 2.36611L5.68934 11.1161C5.55003 11.2322 5.43953 11.37 5.36413 11.5217C5.28874 11.6733 5.24993 11.8359 5.24993 12C5.24993 12.1642 5.28874 12.3268 5.36413 12.4784C5.43953 12.6301 5.55003 12.7679 5.68934 12.8839L16.1894 21.6339C16.3285 21.7502 16.4938 21.8424 16.6758 21.9052C16.8579 21.968 17.053 22.0002 17.25 22Z" fill="#6B6B6B"/>
</svg>
