<svg viewBox="0 0 18 18" xmlns="http://www.w3.org/2000/svg" xmlns:xlink="http://www.w3.org/1999/xlink" width="18.000000" height="18.000000" fill="none" customFrame="#000000">
	<path id="Vector" d="M9 0C4.03725 0 0 4.03756 0 9.00038C0.000417719 13.9627 4.03784 18 9 18C13.9626 18 18 13.9628 18 9.00029C17.9999 4.03756 13.9626 0 9 0ZM9 1.25317C10.8397 1.25317 12.5313 1.89822 13.8616 2.97353L2.97357 13.8616C1.89845 12.5314 1.25332 10.8399 1.25316 9.00029C1.25316 4.72856 4.72841 1.25317 9 1.25317ZM9 16.7468C7.01851 16.7468 5.2087 15.9986 3.83725 14.7703L14.7702 3.83722C15.9985 5.20869 16.7468 7.01869 16.7468 9.00038C16.7468 13.2718 13.2715 16.7468 9 16.7468Z" fill="rgb(26.2356,26.2356,26.2356)" fill-rule="nonzero" />
</svg>
