<svg width="24.000000" height="24.000000" viewBox="0 0 24 24" fill="none" xmlns="http://www.w3.org/2000/svg" xmlns:xlink="http://www.w3.org/1999/xlink">
	<desc>
			Created with Pixso.
	</desc>
	<defs/>
	<rect id="Иконки для топа" rx="0.000000" width="23.000000" height="23.000000" transform="translate(0.500000 0.500000)" fill="#FFFFFF" fill-opacity="0"/>
	<path id="Vector" d="M23 3.9C23 4.39 22.58 4.8 22.08 4.8L1.91 4.8C1.41 4.8 1 4.39 1 3.9C1 3.4 1.41 3 1.91 3L22.08 3C22.58 3 23 3.4 23 3.9ZM7.41 19.2L1.91 19.2C1.41 19.2 1 19.6 1 20.1C1 20.59 1.41 21 1.91 21L7.41 21C7.92 21 8.33 20.59 8.33 20.1C8.33 19.6 7.92 19.2 7.41 19.2ZM14.75 11.1L1.91 11.1C1.41 11.1 1 11.5 1 12C1 12.49 1.41 12.9 1.91 12.9L14.75 12.9C15.25 12.9 15.66 12.49 15.66 12C15.66 11.5 15.25 11.1 14.75 11.1Z" fill="#6B6B6B" fill-opacity="1.000000" fill-rule="nonzero"/>
	<path id="Vector" d="M22.08 4.8L1.91 4.8C1.41 4.8 1 4.39 1 3.9C1 3.4 1.41 3 1.91 3L22.08 3C22.58 3 23 3.4 23 3.9C23 4.39 22.58 4.8 22.08 4.8ZM1.91 19.2C1.41 19.2 1 19.6 1 20.1C1 20.59 1.41 21 1.91 21L7.41 21C7.92 21 8.33 20.59 8.33 20.1C8.33 19.6 7.92 19.2 7.41 19.2L1.91 19.2ZM1.91 11.1C1.41 11.1 1 11.5 1 12C1 12.49 1.41 12.9 1.91 12.9L14.75 12.9C15.25 12.9 15.66 12.49 15.66 12C15.66 11.5 15.25 11.1 14.75 11.1L1.91 11.1Z" stroke="#6B6B6B" stroke-opacity="1.000000" stroke-width="1.000000"/>
</svg>
