<svg width="12" height="12" viewBox="0 0 12 12" fill="none" xmlns="http://www.w3.org/2000/svg">
<path fill-rule="evenodd" clip-rule="evenodd" d="M0.219941 0.21994C0.513196 -0.0733137 0.988654 -0.0733133 1.28191 0.219941L6.00001 4.93805L10.7181 0.219943C11.0113 -0.0733126 11.4868 -0.0733144 11.7801 0.219938C12.0733 0.513191 12.0733 0.98865 11.7801 1.2819L7.06198 6.00002L11.7801 10.7181C12.0733 11.0113 12.0733 11.4868 11.7801 11.7801C11.4868 12.0733 11.0113 12.0733 10.7181 11.7801L6.00001 7.06199L1.28191 11.7801C0.988651 12.0733 0.513192 12.0733 0.219939 11.7801C-0.0733142 11.4868 -0.0733129 11.0113 0.219942 10.7181L4.93805 6.00002L0.21994 1.28191C-0.0733138 0.988652 -0.0733133 0.513194 0.219941 0.21994Z" fill="#E5E4DF"/>
</svg>
