<svg width="108" height="108" viewBox="0 0 108 108" fill="none" xmlns="http://www.w3.org/2000/svg">
<g clip-path="url(#clip0_226_1530)">
<path d="M81.4958 58.6191L70.4401 27.062C69.723 25.0149 67.7316 23.9507 65.6596 23.9507H42.34C40.268 23.9507 38.277 25.0149 37.5596 27.062L26.5038 58.6191C25.6973 60.9212 26.7005 63.5339 28.9198 64.5466C29.5319 64.8275 30.1974 64.9732 30.8709 64.9737C32.8019 64.9737 34.6092 63.7681 35.2838 61.8427L40.7526 46.2333V49.4572L33.7943 73.1043C33.6053 74.4939 34.2897 75.9036 35.6261 76.5923C36.1135 76.8433 36.6626 76.952 37.2107 76.952H40.8459V102.231C40.8459 105.252 43.1676 107.852 46.1857 107.994C49.4078 108.145 52.0679 105.578 52.0679 102.389V78.8838C52.0679 78.3714 52.2714 77.8801 52.6337 77.5178C52.996 77.1555 53.4873 76.952 53.9996 76.952C54.512 76.952 55.0033 77.1555 55.3656 77.5178C55.7279 77.8801 55.9314 78.3714 55.9314 78.8838V102.23C55.9314 105.252 58.2534 107.851 61.2712 107.993C64.4933 108.145 67.1534 105.577 67.1534 102.388V76.9513H70.7886C71.337 76.9513 71.8858 76.8426 72.3732 76.5916C73.7092 75.9029 74.394 74.4932 74.205 73.1036L67.247 49.4569V46.233L72.7158 61.8423C73.3905 63.7678 75.1977 64.9733 77.1288 64.9733C77.7778 64.9733 78.4413 64.8376 79.0798 64.5459C81.2995 63.5339 82.3023 60.9212 81.4958 58.6191Z" fill="white"/>
<path d="M54.0732 20.3344C59.6884 20.3344 64.2404 15.7824 64.2404 10.1672C64.2404 4.55202 59.6884 0 54.0732 0C48.458 0 43.906 4.55202 43.906 10.1672C43.906 15.7824 48.458 20.3344 54.0732 20.3344Z" fill="white"/>
</g>
<defs>
<clipPath id="clip0_226_1530">
<rect width="108" height="108" fill="white"/>
</clipPath>
</defs>
</svg>
