<svg width="22.504395" height="24.500000" viewBox="0 0 22.5044 24.5" fill="none" xmlns="http://www.w3.org/2000/svg" xmlns:xlink="http://www.w3.org/1999/xlink">
	<desc>
			Created with Pixso.
	</desc>
	<defs/>
	<path id="Vector" d="M13.25 24.25C13.03 24.25 12.82 24.17 12.65 24.05L8.65 21.05C8.52 20.95 8.42 20.83 8.35 20.69C8.28 20.55 8.25 20.4 8.25 20.25L8.25 14.63L1.23 6.73C0.73 6.17 0.41 5.48 0.29 4.73C0.18 3.99 0.28 3.23 0.59 2.55C0.9 1.86 1.4 1.28 2.03 0.87C2.66 0.46 3.39 0.25 4.15 0.25L18.35 0.25C19.1 0.25 19.84 0.46 20.47 0.87C21.1 1.28 21.6 1.86 21.9 2.55C22.21 3.23 22.32 3.99 22.2 4.73C22.09 5.48 21.76 6.17 21.26 6.73L14.25 14.63L14.25 23.25C14.25 23.51 14.14 23.76 13.96 23.95C13.77 24.14 13.51 24.25 13.25 24.25ZM10.25 19.75L12.25 21.25L12.25 14.25C12.25 14 12.34 13.76 12.5 13.58L19.77 5.4C20.01 5.13 20.17 4.79 20.23 4.43C20.28 4.07 20.23 3.7 20.08 3.37C19.93 3.03 19.69 2.75 19.38 2.55C19.07 2.35 18.72 2.25 18.35 2.25L4.15 2.25C3.78 2.25 3.42 2.35 3.12 2.55C2.81 2.75 2.57 3.03 2.42 3.37C2.27 3.7 2.21 4.07 2.27 4.43C2.32 4.79 2.48 5.13 2.72 5.4L10 13.58C10.16 13.76 10.25 14 10.25 14.25L10.25 19.75Z" fill="#6B6B6B" fill-opacity="1.000000" fill-rule="nonzero"/>
	<path id="Vector" d="M12.65 24.05L8.65 21.05C8.52 20.95 8.42 20.83 8.35 20.69C8.28 20.55 8.25 20.4 8.25 20.25L8.25 14.63L1.23 6.73C0.73 6.17 0.41 5.48 0.29 4.73C0.18 3.99 0.28 3.23 0.59 2.55C0.9 1.86 1.4 1.28 2.03 0.87C2.66 0.46 3.39 0.25 4.15 0.25L18.35 0.25C19.1 0.25 19.84 0.46 20.47 0.87C21.1 1.28 21.6 1.86 21.9 2.55C22.21 3.23 22.32 3.99 22.2 4.73C22.09 5.48 21.76 6.17 21.26 6.73L14.25 14.63L14.25 23.25C14.25 23.51 14.14 23.76 13.96 23.95C13.77 24.14 13.51 24.25 13.25 24.25C13.03 24.25 12.82 24.17 12.65 24.05ZM12.25 21.25L12.25 14.25C12.25 14 12.34 13.76 12.5 13.58L19.77 5.4C20.01 5.13 20.17 4.79 20.23 4.43C20.28 4.07 20.23 3.7 20.08 3.37C19.93 3.03 19.69 2.75 19.38 2.55C19.07 2.35 18.72 2.25 18.35 2.25L4.15 2.25C3.78 2.25 3.42 2.35 3.12 2.55C2.81 2.75 2.57 3.03 2.42 3.37C2.27 3.7 2.21 4.07 2.27 4.43C2.32 4.79 2.48 5.13 2.72 5.4L10 13.58C10.16 13.76 10.25 14 10.25 14.25L10.25 19.75L12.25 21.25Z" stroke="#6B6B6B" stroke-opacity="1.000000" stroke-width="0.500000"/>
</svg>
