<svg width="24.000000" height="24.000000" viewBox="0 0 24 24" fill="none" xmlns="http://www.w3.org/2000/svg" xmlns:xlink="http://www.w3.org/1999/xlink">
	<desc>
			Created with Pixso.
	</desc>
	<defs/>
	<path id="Vector" d="M22.67 14.99C23.45 14.81 24 14.11 24 13.32L24 10.76C24 10.37 23.86 10 23.62 9.69C23.38 9.39 23.05 9.18 22.67 9.09L20.73 8.61C20.73 8.61 20.71 8.6 20.69 8.58L20.67 8.54L20.59 8.34C20.56 8.28 20.58 8.25 20.58 8.25L20.57 8.25L20.58 8.25L21.57 6.6L21.64 6.47C21.94 5.86 21.86 5.13 21.41 4.6L21.31 4.49L19.5 2.68C19.23 2.4 18.87 2.23 18.49 2.19C18.11 2.14 17.72 2.22 17.39 2.42L15.74 3.41L15.72 3.42C15.71 3.42 15.68 3.41 15.65 3.4L15.46 3.32C15.42 3.31 15.4 3.29 15.39 3.28L15.38 3.26L14.91 1.3L14.91 1.29L14.9 1.28C14.72 0.59 14.12 0.06 13.38 0L13.23 0L10.67 0C10.29 0 9.92 0.12 9.62 0.36C9.33 0.58 9.11 0.9 9.01 1.25L9.01 1.25L9 1.28L9 1.29L8.99 1.3L8.52 3.26C8.52 3.26 8.51 3.28 8.49 3.3L8.45 3.32L8.44 3.32L8.25 3.4C8.22 3.42 8.19 3.42 8.18 3.42L8.17 3.42L8.16 3.41L6.51 2.42C6.18 2.22 5.8 2.14 5.41 2.19C5.08 2.23 4.77 2.36 4.51 2.58L4.41 2.68L2.59 4.49C2.32 4.76 2.15 5.12 2.1 5.5C2.05 5.88 2.14 6.27 2.34 6.6L3.33 8.25L3.33 8.25C3.33 8.25 3.33 8.26 3.33 8.27L3.31 8.34L3.23 8.54L3.23 8.55C3.22 8.58 3.2 8.6 3.19 8.61L3.18 8.62L1.31 9.09C0.54 9.27 0 9.97 0 10.76L0 13.32C0 13.7 0.13 14.08 0.36 14.38C0.6 14.68 0.94 14.89 1.31 14.98L1.31 14.98L3.18 15.46L3.18 15.46C3.19 15.46 3.21 15.48 3.23 15.53C3.26 15.6 3.29 15.67 3.32 15.74C3.33 15.77 3.33 15.79 3.33 15.81L3.33 15.82L3.33 15.83L2.34 17.48C2.14 17.81 2.06 18.19 2.1 18.57C2.15 18.96 2.32 19.31 2.59 19.58L4.41 21.4C4.68 21.67 5.04 21.84 5.42 21.89C5.8 21.93 6.18 21.85 6.51 21.65L6.51 21.65L8.16 20.66L8.16 20.66C8.17 20.66 8.2 20.65 8.25 20.67C8.32 20.7 8.39 20.73 8.45 20.76L8.46 20.76C8.51 20.78 8.52 20.81 8.53 20.81L9 22.7L9 22.7L9 22.71C9.1 23.08 9.32 23.4 9.62 23.63C9.92 23.87 10.29 23.99 10.67 24L13.23 24C13.61 23.99 13.98 23.87 14.29 23.63C14.59 23.4 14.81 23.08 14.91 22.71L14.91 22.7L14.91 22.69L15.38 20.81L15.38 20.81C15.38 20.81 15.39 20.78 15.45 20.76L15.45 20.76C15.52 20.73 15.59 20.7 15.65 20.67C15.71 20.65 15.74 20.66 15.74 20.66L15.74 20.66L15.74 20.66L17.39 21.65C17.72 21.85 18.11 21.93 18.49 21.89C18.87 21.84 19.23 21.67 19.5 21.4L21.31 19.58L21.31 19.58C21.84 19.05 21.96 18.26 21.64 17.61L21.57 17.48L20.58 15.83L20.58 15.83C20.58 15.82 20.57 15.79 20.59 15.74C20.62 15.67 20.64 15.6 20.67 15.54C20.69 15.49 20.71 15.47 20.72 15.47L20.73 15.46L22.67 14.98L22.67 14.99ZM9.25 5.34C9.89 5.08 10.45 4.53 10.63 3.77L11.02 2.17L12.89 2.17L13.27 3.77L13.31 3.91C13.5 4.51 13.92 4.96 14.42 5.23L14.65 5.33L14.8 5.4C15.43 5.66 16.2 5.67 16.86 5.28L18.21 4.46L19.53 5.78L18.71 7.13L18.71 7.14C18.53 7.44 18.43 7.79 18.41 8.15C18.39 8.5 18.45 8.86 18.59 9.19L18.66 9.34C18.91 9.98 19.46 10.53 20.21 10.72L21.82 11.11L21.82 12.96L20.21 13.36L20.2 13.36C19.86 13.45 19.53 13.62 19.26 13.86C18.99 14.1 18.79 14.4 18.66 14.73L18.59 14.88L18.59 14.88C18.45 15.21 18.39 15.57 18.41 15.93C18.43 16.28 18.53 16.63 18.71 16.94L18.72 16.94L19.53 18.3L18.21 19.61L16.86 18.8L16.85 18.8L16.62 18.68C16.37 18.57 16.11 18.51 15.84 18.49C15.49 18.47 15.13 18.53 14.8 18.68L14.64 18.74C14.05 18.98 13.53 19.47 13.31 20.15L13.27 20.29L12.89 21.82L11.02 21.82L10.63 20.29L10.63 20.29L10.55 20.03C10.45 19.78 10.31 19.55 10.13 19.35C9.89 19.08 9.59 18.87 9.26 18.74L9.11 18.68L9.11 18.68L8.86 18.59C8.6 18.51 8.33 18.48 8.06 18.49C7.8 18.51 7.53 18.57 7.29 18.68L7.05 18.8L7.05 18.8L5.69 19.61L4.37 18.3L5.19 16.94L5.26 16.82C5.54 16.27 5.56 15.66 5.4 15.13L5.31 14.89L5.25 14.73C5.12 14.4 4.91 14.1 4.65 13.86C4.45 13.68 4.22 13.54 3.97 13.44L3.71 13.36L3.71 13.36L2.17 12.96L2.17 11.11L3.71 10.72L3.71 10.72C4.06 10.63 4.38 10.45 4.65 10.22C4.91 9.98 5.12 9.68 5.25 9.35L5.25 9.35L5.31 9.19L5.31 9.18C5.45 8.86 5.52 8.5 5.5 8.15C5.48 7.88 5.42 7.62 5.31 7.37L5.19 7.14L5.19 7.13L4.37 5.78L5.69 4.46L7.05 5.28L7.17 5.34C7.8 5.67 8.52 5.65 9.1 5.4L9.11 5.4C9.15 5.38 9.2 5.36 9.25 5.34L9.25 5.34ZM15.85 15.85C16.81 14.89 17.37 13.61 17.44 12.27L17.45 12C17.45 10.55 16.87 9.16 15.85 8.14C14.89 7.18 13.61 6.62 12.27 6.55L12 6.54C11.28 6.54 10.57 6.68 9.91 6.96C9.25 7.23 8.65 7.64 8.14 8.14C7.64 8.65 7.23 9.25 6.96 9.91C6.68 10.57 6.54 11.28 6.54 12C6.54 12.71 6.68 13.42 6.96 14.08C7.23 14.74 7.64 15.34 8.14 15.85C8.65 16.36 9.25 16.76 9.91 17.03C10.57 17.3 11.28 17.45 12 17.45L12.27 17.44C13.61 17.37 14.89 16.81 15.85 15.85ZM8.91 13.26C8.76 12.91 8.68 12.54 8.66 12.16L8.65 11.99C8.65 11.56 8.74 11.13 8.91 10.73C9.08 10.32 9.32 9.96 9.63 9.65C9.94 9.35 10.31 9.11 10.72 8.95C11.11 8.79 11.53 8.71 11.95 8.71L11.99 8.72C12.84 8.74 13.66 9.09 14.26 9.7C14.85 10.32 15.19 11.14 15.19 12L15.17 12.31C15.1 13.05 14.78 13.75 14.26 14.29C13.66 14.9 12.85 15.25 11.99 15.27L11.83 15.27C11.45 15.26 11.07 15.18 10.72 15.04C10.31 14.88 9.94 14.64 9.63 14.34C9.32 14.03 9.08 13.66 8.91 13.26Z" fill="#6B6B6B" fill-opacity="1.000000" fill-rule="evenodd"/>
</svg>
