<svg width="23" height="23" viewBox="0 0 23 23" fill="none" xmlns="http://www.w3.org/2000/svg">
<path d="M21.1699 8.70763L14.1551 1.81203C13.2869 0.961226 12.117 0.489556 10.9019 0.500414C9.68676 0.511271 8.5255 1.00377 7.67268 1.86995L0.782216 8.88979C0.528227 9.14686 0.327759 9.45181 0.192435 9.78698C0.0571112 10.1222 -0.0103777 10.4809 -0.00611905 10.8423L0.0743306 19.8463C0.0808509 20.576 0.376824 21.2733 0.897138 21.7847C1.41745 22.2961 2.11949 22.5798 2.8488 22.5732L19.3481 22.4258C20.0774 22.4193 20.7743 22.1232 21.2854 21.6025C21.7965 21.0819 22.0799 20.3795 22.0734 19.6497L21.993 10.6458C21.9908 10.2843 21.9169 9.92684 21.7756 9.59414C21.6343 9.26144 21.4284 8.96012 21.1699 8.70763ZM13.832 20.6406L8.33219 20.6897L8.29995 17.0816C8.29343 16.3518 8.57689 15.6494 9.08799 15.1287C9.59908 14.6081 10.2959 14.312 11.0253 14.3055C11.7546 14.2989 12.4566 14.5826 12.9769 15.094C13.4972 15.6054 13.7932 16.3027 13.7997 17.0324L13.832 20.6406ZM20.2402 19.6661C20.2423 19.9093 20.1479 20.1435 19.9775 20.317C19.8071 20.4906 19.5748 20.5893 19.3317 20.5915L15.6652 20.6242L15.633 17.016C15.6221 15.7998 15.1288 14.6377 14.2616 13.7853C13.3944 12.933 12.2244 12.4602 11.0089 12.4711C9.79333 12.482 8.63191 12.9755 7.78009 13.8432C6.92827 14.7109 6.45582 15.8817 6.46669 17.0979L6.49893 20.7061L2.83241 20.7389C2.58931 20.7411 2.3553 20.6465 2.18186 20.476C2.00842 20.3056 1.90976 20.0731 1.90759 19.8299L1.82714 10.8259C1.82582 10.5829 1.92022 10.349 2.08992 10.1751L8.98041 3.15801C9.49251 2.63879 10.1893 2.34364 10.9183 2.33713C11.6473 2.33061 12.3493 2.61326 12.8706 3.12325L19.8854 10.0189C20.0575 10.1891 20.156 10.42 20.1597 10.6621L20.2402 19.6661Z" fill="#6B6B6B"/>
</svg>
