<svg width="90" height="90" viewBox="0 0 90 90" fill="none" xmlns="http://www.w3.org/2000/svg">
<g clip-path="url(#clip0_474_22511)">
<path d="M33.7501 67.5001C52.3601 67.5001 67.5001 52.3601 67.5001 33.7501C67.5001 15.1401 52.3599 0 33.7501 0C15.1401 0 0 15.1401 0 33.7501C0 52.3599 15.1401 67.5001 33.7501 67.5001ZM33.7501 10.8989C46.3502 10.8989 56.6011 21.1499 56.6011 33.7499C56.6011 46.3502 46.3502 56.6011 33.7501 56.6011C21.1499 56.6011 10.8989 46.3502 10.8989 33.7499C10.8989 21.1499 21.1499 10.8989 33.7501 10.8989Z" fill="#6E6CE1"/>
<path d="M80.5097 90C83.0459 90 85.4293 89.0124 87.2199 87.2183C89.0122 85.4289 89.9999 83.046 89.9999 80.5095C89.9999 77.9736 89.0122 75.5895 87.219 73.796L68.4253 55.002C67.9256 54.5023 67.2801 54.2267 66.6085 54.2267C65.7737 54.2267 65.0053 54.642 64.5002 55.3662C62.0224 58.9286 58.9299 62.0212 55.3675 64.4991C54.7152 64.9534 54.3033 65.6431 54.2371 66.3915C54.1715 67.1311 54.4505 67.8723 55.0028 68.4244L73.7963 87.2183C75.5894 89.0122 77.9736 90 80.5097 90Z" fill="#6E6CE1"/>
</g>
<defs>
<clipPath id="clip0_474_22511">
<rect width="90" height="90" fill="white"/>
</clipPath>
</defs>
</svg>
