<svg width="76" height="76" viewBox="0 0 76 76" fill="none" xmlns="http://www.w3.org/2000/svg">
<path d="M73.9505 33.0563L73.9453 33.0511L42.9434 2.05037C41.6218 0.728086 39.8649 0 37.9963 0C36.1274 0 34.3705 0.727641 33.0485 2.04977L2.06266 33.0348C2.05227 33.0452 2.04188 33.0561 2.03149 33.0667C-0.682245 35.7959 -0.677495 40.224 2.04485 42.9464C3.28846 44.1907 4.93122 44.9114 6.68753 44.9868C6.75878 44.9938 6.83077 44.9972 6.90321 44.9972H8.1388V67.812C8.1388 72.3268 11.812 76 16.3278 76H28.4566C29.686 76 30.6832 75.0032 30.6832 73.7734V55.8867C30.6832 53.8266 32.3591 52.1508 34.4192 52.1508H41.5732C43.6335 52.1508 45.309 53.8267 45.309 55.8867V73.7734C45.309 75.0032 46.3058 76 47.5356 76H59.6646C64.1803 76 67.8536 72.3268 67.8536 67.8122V44.9973H68.9994C70.8676 44.9973 72.6245 44.2697 73.9471 42.9477C76.6724 40.2208 76.6734 35.785 73.9505 33.0563Z" fill="white"/>
</svg>
