<svg width="108" height="108" viewBox="0 0 108 108" fill="none" xmlns="http://www.w3.org/2000/svg">
<g clip-path="url(#clip0_226_1412)">
<path d="M66.713 26.3387H41.2825C36.5149 26.3445 32.6513 30.2081 32.6455 34.9757V66.351C32.6455 68.0313 34.0077 69.3932 35.6877 69.3932C37.368 69.3932 38.7299 68.0311 38.7299 66.351V40.6556C38.7299 40.2074 38.908 39.7776 39.2249 39.4607C39.5418 39.1438 39.9717 38.9657 40.4198 38.9657C40.868 38.9657 41.2979 39.1438 41.6148 39.4607C41.9317 39.7776 42.1097 40.2074 42.1097 40.6556V102.142C42.207 104.956 44.5674 107.159 47.3817 107.062C50.0596 106.969 52.209 104.82 52.3016 102.142V67.0264C52.3016 66.5782 52.4796 66.1484 52.7965 65.8315C53.1134 65.5145 53.5433 65.3365 53.9915 65.3365C54.4397 65.3365 54.8695 65.5145 55.1864 65.8315C55.5033 66.1484 55.6814 66.5782 55.6814 67.0264V102.142C55.7787 104.956 58.139 107.159 60.9533 107.062C63.6312 106.969 65.7806 104.82 65.8732 102.142V40.6556C65.8732 40.2074 66.0512 39.7776 66.3681 39.4607C66.6851 39.1438 67.1149 38.9657 67.5631 38.9657C68.0113 38.9657 68.4411 39.1438 68.758 39.4607C69.075 39.7776 69.253 40.2074 69.253 40.6556V66.3508C69.253 68.0311 70.6151 69.393 72.2952 69.393C73.9755 69.393 75.3374 68.0309 75.3374 66.3508V34.9772C75.3329 30.2137 71.4766 26.3513 66.713 26.3387Z" fill="#6E6CE1"/>
<path d="M60.7851 108C57.5513 107.997 54.9305 105.376 54.927 102.142V67.0264C54.927 66.7797 54.829 66.5431 54.6546 66.3686C54.4801 66.1941 54.2435 66.0961 53.9968 66.0961C53.7501 66.0961 53.5134 66.1941 53.339 66.3686C53.1645 66.5431 53.0665 66.7797 53.0665 67.0264V102.142C52.9928 105.377 50.311 107.939 47.0766 107.865C43.9459 107.794 41.4249 105.273 41.3537 102.142V40.6556C41.3537 40.5336 41.3297 40.4127 41.283 40.3C41.2363 40.1872 41.1678 40.0847 41.0815 39.9984C40.9952 39.9121 40.8927 39.8437 40.78 39.797C40.6672 39.7503 40.5464 39.7262 40.4243 39.7262C40.3022 39.7262 40.1814 39.7503 40.0686 39.797C39.9559 39.8437 39.8534 39.9121 39.7671 39.9984C39.6808 40.0847 39.6123 40.1872 39.5656 40.3C39.5189 40.4127 39.4949 40.5336 39.4949 40.6556V66.3508C39.4949 68.451 37.7924 70.1537 35.692 70.1537C33.5916 70.1537 31.889 68.4512 31.889 66.3508V34.9772C31.8948 29.7895 36.099 25.5855 41.2868 25.5795H66.7128C71.9005 25.5852 76.1045 29.7895 76.1105 34.9772V66.351C76.1105 68.4512 74.408 70.1539 72.3076 70.1539C70.2072 70.1539 68.5046 68.4514 68.5046 66.351V40.6556C68.5046 40.4091 68.4067 40.1727 68.2324 39.9984C68.0581 39.8241 67.8217 39.7262 67.5752 39.7262C67.3288 39.7262 67.0924 39.8241 66.9181 39.9984C66.7438 40.1727 66.6458 40.4091 66.6458 40.6556V102.142C66.642 105.377 64.0199 107.997 60.7851 108ZM53.9976 64.5758C55.3504 64.5775 56.4465 65.6737 56.4483 67.0264V102.142C56.5118 104.537 58.504 106.426 60.8984 106.363C63.2034 106.302 65.0577 104.447 65.1189 102.142V40.6556C65.1189 39.3023 66.2161 38.205 67.5695 38.205C68.9229 38.205 70.0201 39.3023 70.0201 40.6556V66.3508C70.0201 67.6109 71.0416 68.6325 72.3018 68.6325C73.562 68.6325 74.5835 67.6109 74.5835 66.3508V34.9772C74.5784 30.6293 71.0549 27.1058 66.707 27.1007H41.2825C36.9346 27.1058 33.4111 30.6293 33.406 34.9772V66.351C33.406 67.6112 34.4275 68.6327 35.6877 68.6327C36.9478 68.6327 37.9694 67.6112 37.9694 66.351V40.6556C37.9694 39.3023 39.0666 38.205 40.42 38.205C41.7734 38.205 42.8706 39.3023 42.8706 40.6556V102.142C42.9341 104.536 44.9264 106.426 47.3208 106.362C49.6258 106.301 51.4801 104.447 51.5412 102.142V67.0264C51.5427 65.6713 52.6425 64.5741 53.9976 64.5758Z" fill="#6E6CE1"/>
<path d="M53.9976 20.5794C59.4709 20.5794 63.9079 16.1425 63.9079 10.6692C63.9079 5.19594 59.4709 0.758972 53.9976 0.758972C48.5244 0.758972 44.0874 5.19594 44.0874 10.6692C44.0874 16.1425 48.5244 20.5794 53.9976 20.5794Z" fill="#6E6CE1"/>
<path d="M53.9976 21.3417C48.1043 21.3417 43.3267 16.5642 43.3267 10.6707C43.3267 4.77742 48.1041 -0.000244141 53.9976 -0.000244141C59.8905 -0.000244141 64.6677 4.77635 64.6686 10.669C64.6628 16.5606 59.889 21.335 53.9976 21.3417ZM53.9976 1.51969C48.9444 1.51969 44.8479 5.61617 44.8479 10.6694C44.8479 15.7227 48.9444 19.8192 53.9976 19.8192C59.0509 19.8192 63.1473 15.7227 63.1473 10.6694C63.1416 5.61852 59.0485 1.52546 53.9976 1.51969Z" fill="#6E6CE1"/>
</g>
<defs>
<clipPath id="clip0_226_1412">
<rect width="108" height="108" fill="white"/>
</clipPath>
</defs>
</svg>
