<svg width="108" height="103" viewBox="0 0 108 103" fill="none" xmlns="http://www.w3.org/2000/svg">
<path d="M39.045 42.75C43.2479 42.75 47.3564 41.5037 50.8509 39.1687C54.3455 36.8338 57.0691 33.515 58.6775 29.632C60.2858 25.7491 60.7067 21.4764 59.8867 17.3543C59.0668 13.2322 57.0429 9.44586 54.0711 6.47399C51.0992 3.50212 47.3128 1.47826 43.1907 0.658322C39.0686 -0.161614 34.7959 0.259207 30.913 1.86757C27.0301 3.47593 23.7113 6.1996 21.3763 9.69414C19.0413 13.1887 17.795 17.2972 17.795 21.5C17.8017 27.1338 20.0426 32.535 24.0263 36.5187C28.01 40.5024 33.4112 42.7434 39.045 42.75ZM39.045 7.75001C41.7645 7.75001 44.423 8.55643 46.6841 10.0673C48.9453 11.5782 50.7077 13.7256 51.7484 16.2381C52.7891 18.7506 53.0614 21.5153 52.5308 24.1825C52.0003 26.8497 50.6907 29.2998 48.7678 31.2227C46.8448 33.1457 44.3948 34.4553 41.7275 34.9858C39.0603 35.5164 36.2956 35.2441 33.7831 34.2034C31.2707 33.1626 29.1232 31.4003 27.6123 29.1391C26.1015 26.8779 25.295 24.2195 25.295 21.5C25.299 17.8545 26.7489 14.3594 29.3267 11.7817C31.9045 9.20391 35.3995 7.75398 39.045 7.75001ZM77.75 79.1C77.75 91.125 71.09 97.75 59 97.75H28.45C27.4555 97.75 26.5016 97.3549 25.7984 96.6517C25.0951 95.9484 24.7 94.9946 24.7 94C24.7 93.0054 25.0951 92.0516 25.7984 91.3484C26.5016 90.6451 27.4555 90.25 28.45 90.25H59C66.885 90.25 70.25 86.915 70.25 79.1C70.358 75.7349 69.6888 72.3902 68.2944 69.3257C66.9 66.2612 64.818 63.5593 62.21 61.43C61.3932 60.8618 60.8355 59.9923 60.6597 59.0129C60.4839 58.0335 60.7043 57.0244 61.2725 56.2075C61.8408 55.3906 62.7102 54.833 63.6896 54.6571C64.669 54.4813 65.6782 54.7018 66.495 55.27C70.1426 58.0502 73.0689 61.666 75.0275 65.813C76.9862 69.96 77.9199 74.5169 77.75 79.1ZM91.41 31.36C92.0607 31.9723 92.4693 32.7982 92.5611 33.6869C92.6529 34.5756 92.4218 35.4677 91.91 36.2C90.2918 39.0278 87.9066 41.3402 85.03 42.87C84.458 43.194 83.8125 43.3662 83.155 43.37C82.4174 43.3692 81.6965 43.1503 81.083 42.7409C80.4695 42.3314 79.9907 41.7497 79.707 41.0689C79.4232 40.388 79.3471 39.6385 79.4882 38.9145C79.6293 38.1905 79.9814 37.5244 80.5 37C80.785 36.7109 81.112 36.4664 81.47 36.275C83.1897 35.3767 84.6005 33.9834 85.5201 32.275C85.6746 31.9952 85.8645 31.7364 86.085 31.505C86.7738 30.7828 87.7201 30.3623 88.7177 30.3351C89.7152 30.308 90.6831 30.6764 91.41 31.36ZM107.75 72.4C107.964 74.4771 107.71 76.5758 107.008 78.5422C106.306 80.5086 105.172 82.293 103.691 83.7647C102.21 85.2364 100.418 86.3582 98.4469 87.0477C96.476 87.7373 94.3757 87.9772 92.3 87.75H88.9C87.9055 87.75 86.9517 87.3549 86.2484 86.6517C85.5451 85.9484 85.15 84.9946 85.15 84C85.15 83.0054 85.5451 82.0516 86.2484 81.3484C86.9517 80.6451 87.9055 80.25 88.9 80.25H92.3C98.025 80.25 100.25 78.05 100.25 72.4C100.421 70.2925 100.133 68.173 99.4057 66.1877C98.678 64.2024 97.5281 62.3987 96.0354 60.9012C94.5426 59.4037 92.7426 58.2481 90.7597 57.5141C88.7767 56.7801 86.6581 56.4853 84.55 56.65H77C76.0055 56.65 75.0517 56.2549 74.3484 55.5517C73.6451 54.8484 73.25 53.8946 73.25 52.9C73.25 51.9054 73.6451 50.9516 74.3484 50.2484C75.0517 49.5451 76.0055 49.15 77 49.15H84.55C87.6538 48.9462 90.7653 49.4082 93.6758 50.5052C96.5863 51.6023 99.2287 53.3089 101.426 55.5106C103.623 57.7124 105.324 60.3585 106.414 63.2714C107.505 66.1843 107.961 69.2967 107.75 72.4ZM101.65 6.65001C102.312 5.93913 102.673 4.9989 102.656 4.0274C102.639 3.05589 102.245 2.12897 101.558 1.4419C100.871 0.754835 99.9442 0.361275 98.9727 0.344134C98.0012 0.326993 97.0609 0.687609 96.35 1.35001L85.22 12.5C82.7788 11.1656 80.0563 10.4283 77.2753 10.3483C74.4943 10.2683 71.7339 10.8481 69.22 12.04C68.3594 12.5076 67.7158 13.2933 67.427 14.2292C67.1381 15.1651 67.2269 16.1768 67.6743 17.0481C68.1217 17.9194 68.8922 18.5811 69.8211 18.8916C70.75 19.2022 71.7636 19.137 72.645 18.71C74.7817 17.7449 77.1957 17.5869 79.44 18.265L47.44 50.265H29C7.78004 50.265 0.250035 65.805 0.250035 79.115C0.0939189 81.5871 0.429832 84.0656 1.23832 86.407C2.04681 88.7483 3.3118 90.906 4.96004 92.755L1.35004 96.365C0.981602 96.7083 0.68609 97.1223 0.48113 97.5823C0.276171 98.0423 0.165962 98.5389 0.157078 99.0424C0.148194 99.5459 0.240817 100.046 0.429422 100.513C0.618027 100.98 0.89875 101.404 1.25484 101.76C1.61094 102.116 2.03511 102.397 2.50205 102.586C2.96899 102.774 3.46913 102.867 3.97265 102.858C4.47616 102.849 4.97273 102.739 5.43273 102.534C5.89272 102.329 6.30673 102.033 6.65004 101.665L101.65 6.65001ZM7.75004 79.1C7.51661 76.2458 7.90527 73.3748 8.88921 70.6854C9.87314 67.9959 11.4289 65.552 13.4492 63.5222C15.4694 61.4925 17.906 59.9252 20.5908 58.9287C23.2756 57.9321 26.1447 57.53 29 57.75H39.945L10.25 87.45C8.35768 85.1003 7.46032 82.1031 7.75004 79.1Z" fill="#8389BE"/>
</svg>
