<svg width="12" height="18" viewBox="0 0 12 18" fill="none" xmlns="http://www.w3.org/2000/svg">
<path d="M5.43837 13.6044C5.08077 13.6044 4.79157 13.3152 4.79157 12.9576C4.79157 12.1116 4.91157 11.3808 5.15037 10.7664C5.32557 10.3032 5.60997 9.83642 6.00117 9.36482C6.28917 9.02162 6.80517 8.52002 7.55157 7.86242C8.29797 7.20362 8.78277 6.67922 9.00717 6.28802C9.23157 5.89682 9.34197 5.46962 9.34197 5.00642C9.34197 4.16762 9.01437 3.43202 8.36037 2.79722C7.70637 2.16242 6.90357 1.84562 5.95317 1.84562C5.03517 1.84562 4.26837 2.13362 3.65397 2.70842C3.20517 3.12842 2.86797 3.72122 2.64477 4.48682C2.49117 5.01242 1.97877 5.34842 1.43517 5.28362C0.746374 5.20202 0.292774 4.52042 0.489574 3.85442C0.791974 2.83082 1.29837 2.00642 2.00757 1.38002C2.99277 0.507622 4.29597 0.0720215 5.91717 0.0720215C7.63317 0.0720215 9.00237 0.538821 10.0248 1.47362C11.0472 2.40842 11.5572 3.53762 11.5572 4.86242C11.5572 5.62922 11.3772 6.33602 11.0184 6.98162C10.6596 7.62842 9.95637 8.41442 8.91117 9.34082C8.20917 9.96362 7.74957 10.4232 7.53357 10.7184C7.31757 11.0136 7.15797 11.3532 7.05477 11.736C6.97797 12.0204 6.92517 12.438 6.89637 12.9864C6.87837 13.332 6.59157 13.6032 6.24597 13.6032H5.43837V13.6044ZM4.67157 16.7004C4.67157 16.0224 5.22117 15.4728 5.89917 15.4728C6.57717 15.4728 7.12677 16.0224 7.12677 16.7004C7.12677 17.3784 6.57717 17.928 5.89917 17.928C5.22117 17.928 4.67157 17.3784 4.67157 16.7004Z" fill="#5755C4"/>
</svg>
