<svg width="24" height="23" viewBox="0 0 24 23" fill="none" xmlns="http://www.w3.org/2000/svg">
<path d="M9.8833 10.1193C9.8833 10.4753 9.59464 10.7638 9.23877 10.7638C8.88277 10.7638 8.59424 10.4753 8.59424 10.1193C8.59424 9.76327 8.88277 9.47473 9.23877 9.47473C9.59464 9.47473 9.8833 9.76327 9.8833 10.1193Z" fill="#A0A0A0" stroke="#A0A0A0" stroke-width="0.2"/>
<path d="M19.2488 5.33283H17.4771V4.25135C17.4771 2.17966 15.801 0.500183 13.7259 0.500183H4.75121C2.67947 0.500183 1 2.17613 1 4.25135V16.3328C1 16.8716 1.63177 17.1823 2.05712 16.828L6.02011 13.5254H6.52298V15.2972C6.52298 17.3689 8.19893 19.0484 10.2741 19.0484H17.98L21.9428 22.3508C22.0587 22.4474 22.2048 22.5003 22.3556 22.5002C22.7099 22.5002 23 22.2127 23 21.8557V9.08386C23 7.01213 21.324 5.33283 19.2488 5.33283ZM5.78658 12.2363C5.63583 12.2364 5.48985 12.2892 5.37404 12.3857L2.28906 14.9566V4.25139C2.28906 2.89148 3.38914 1.78924 4.75116 1.78924H13.7259C15.0857 1.78924 16.188 2.88933 16.188 4.25135V9.77437C16.188 11.1319 15.0835 12.2363 13.7259 12.2363H5.78658ZM21.7109 20.4796L18.6259 17.9087C18.5101 17.8122 18.3641 17.7593 18.2133 17.7593H10.274C9.61638 17.7593 8.99806 17.5032 8.53309 17.0381C8.068 16.5732 7.81187 15.9548 7.81187 15.2972V13.5254H13.7258C14.5321 13.5254 15.2799 13.2696 15.8922 12.835H18.9035C19.2595 12.835 19.548 12.5465 19.548 12.1905C19.548 11.8347 19.2595 11.546 18.9035 11.546H17.0315C17.2767 11.0906 17.4244 10.5892 17.4651 10.0736H18.9035C19.2595 10.0736 19.548 9.78511 19.548 9.42911C19.548 9.07312 19.2595 8.78458 18.9035 8.78458H17.4769V6.62189H19.2488C19.9066 6.62189 20.5248 6.87785 20.9899 7.34294C21.4548 7.80786 21.7109 8.42618 21.7109 9.08386V20.4796Z" fill="#A0A0A0" stroke="#A0A0A0" stroke-width="0.2"/>
<path d="M8.15723 5.63123C8.15723 5.34252 8.26972 5.0713 8.47382 4.86703C8.67792 4.66293 8.94931 4.55048 9.23866 4.55048C9.83486 4.55048 10.3201 5.03572 10.3201 5.63191C10.3201 6.22828 9.83486 6.71335 9.23866 6.71335C8.88267 6.71335 8.59413 7.00184 8.59413 7.35788V8.04822C8.59413 8.40404 8.88267 8.69275 9.23866 8.69275C9.59453 8.69275 9.8832 8.40404 9.8832 8.04822V7.9133C10.8781 7.63181 11.609 6.71567 11.609 5.63191C11.609 4.32472 10.5457 3.26141 9.23798 3.26141C8.60505 3.26141 8.00989 3.50797 7.5622 3.95544C7.11476 4.40309 6.86816 4.9983 6.86816 5.63105V5.63174C6.86816 5.98774 7.1567 6.27593 7.5127 6.27593C7.86869 6.27593 8.15723 5.98722 8.15723 5.63123ZM18.9038 14.3072H10.6194C10.2634 14.3072 9.97489 14.5959 9.97489 14.9517C9.97489 15.3077 10.2634 15.5963 10.6194 15.5963H18.9038C19.2596 15.5963 19.5483 15.3077 19.5483 14.9517C19.5483 14.5959 19.2596 14.3072 18.9038 14.3072Z" fill="#A0A0A0" stroke="#A0A0A0" stroke-width="0.2"/>
</svg>
