<svg width="22.500000" height="22.500610" viewBox="0 0 22.5 22.5006" fill="none" xmlns="http://www.w3.org/2000/svg" xmlns:xlink="http://www.w3.org/1999/xlink">
	<desc>
			Created with Pixso.
	</desc>
	<defs/>
	<path id="Vector" d="M21.92 20.37L15.99 14.43C17.19 12.89 17.84 11 17.84 9.04C17.84 4.19 13.9 0.25 9.04 0.25C4.19 0.25 0.25 4.19 0.25 9.04C0.25 13.9 4.19 17.84 9.04 17.84C11 17.84 12.89 17.19 14.43 15.99L20.37 21.92C20.57 22.13 20.85 22.25 21.15 22.25C21.44 22.25 21.72 22.13 21.92 21.92C22.13 21.72 22.25 21.44 22.25 21.14C22.25 20.85 22.13 20.57 21.92 20.37ZM2.44 9.04C2.44 5.41 5.41 2.44 9.04 2.44C12.68 2.44 15.64 5.41 15.64 9.04C15.64 12.68 12.68 15.64 9.04 15.64C5.41 15.64 2.44 12.68 2.44 9.04Z" fill="#6B6B6B" fill-opacity="1.000000" fill-rule="nonzero"/>
	<path id="Vector" d="M15.99 14.43C17.19 12.89 17.84 11 17.84 9.04C17.84 4.19 13.9 0.25 9.04 0.25C4.19 0.25 0.25 4.19 0.25 9.04C0.25 13.9 4.19 17.84 9.04 17.84C11 17.84 12.89 17.19 14.43 15.99L20.37 21.92C20.57 22.13 20.85 22.25 21.15 22.25C21.44 22.25 21.72 22.13 21.92 21.92C22.13 21.72 22.25 21.44 22.25 21.14C22.25 20.85 22.13 20.57 21.92 20.37L15.99 14.43ZM9.04 2.44C12.68 2.44 15.64 5.41 15.64 9.04C15.64 12.68 12.68 15.64 9.04 15.64C5.41 15.64 2.44 12.68 2.44 9.04C2.44 5.41 5.41 2.44 9.04 2.44Z" stroke="#6B6B6B" stroke-opacity="1.000000" stroke-width="0.500000"/>
</svg>
