<svg width="24" height="24" viewBox="0 0 24 24" fill="none" xmlns="http://www.w3.org/2000/svg">
<path fill-rule="evenodd" clip-rule="evenodd" d="M12 6.816C11.3192 6.816 10.6451 6.95009 10.0162 7.21061C9.38722 7.47113 8.81574 7.85298 8.33436 8.33436C7.85298 8.81574 7.47113 9.38722 7.21061 10.0162C6.95009 10.6451 6.816 11.3192 6.816 12C6.816 12.6808 6.95009 13.3549 7.21061 13.9838C7.47113 14.6128 7.85298 15.1843 8.33436 15.6656C8.81574 16.147 9.38722 16.5289 10.0162 16.7894C10.6451 17.0499 11.3192 17.184 12 17.184C13.3749 17.184 14.6935 16.6378 15.6656 15.6656C16.6378 14.6935 17.184 13.3749 17.184 12C17.184 10.6251 16.6378 9.30655 15.6656 8.33436C14.6935 7.36217 13.3749 6.816 12 6.816ZM12 8.45227C11.529 8.4441 11.0611 8.52981 10.6236 8.70441C10.186 8.87901 9.78768 9.13899 9.4517 9.46919C9.11573 9.79938 8.84888 10.1932 8.66672 10.6276C8.48457 11.062 8.39075 11.5284 8.39075 11.9995C8.39075 12.4705 8.48457 12.9369 8.66672 13.3713C8.84888 13.8057 9.11573 14.1996 9.4517 14.5297C9.78768 14.8599 10.186 15.1199 10.6236 15.2945C11.0611 15.4691 11.529 15.5548 12 15.5467C12.9256 15.524 13.8056 15.1403 14.4522 14.4777C15.0988 13.815 15.4607 12.9259 15.4607 12C15.4607 11.0741 15.0988 10.185 14.4522 9.52232C13.8056 8.85967 12.9256 8.47604 12 8.45333V8.45227Z" fill="#5755C4"/>
<path d="M16.9108 11.7566C16.8506 10.5413 16.3419 9.3879 15.4775 8.52329C14.613 7.65882 13.4594 7.14928 12.2441 7.08892L12.0004 7.08267C11.3546 7.08267 10.7147 7.20951 10.1181 7.45663C9.52149 7.70374 8.97991 8.06668 8.52329 8.52329C8.06668 8.97991 7.70374 9.52149 7.45663 10.1181C7.20951 10.7147 7.08267 11.3546 7.08267 12.0004C7.08272 12.6459 7.20962 13.2852 7.45663 13.8816C7.70374 14.4782 8.06668 15.0208 8.52329 15.4775C8.97981 15.9339 9.52169 16.296 10.1181 16.5431C10.7147 16.7902 11.3546 16.917 12.0004 16.917L12.2441 16.9108C13.4594 16.8504 14.613 16.3419 15.4775 15.4775C16.3995 14.5554 16.9169 13.3044 16.917 12.0004L16.9108 11.7566ZM8.12433 11.9993C8.12435 11.4929 8.22538 10.9914 8.42121 10.5243C8.61705 10.0574 8.9038 9.63344 9.26496 9.2785C9.62604 8.92372 10.0542 8.64429 10.5243 8.45662C10.9947 8.26892 11.4982 8.17702 12.0045 8.18579L12.267 8.18996V8.20246C13.1656 8.28619 14.0089 8.68589 14.6431 9.33579C15.3383 10.0483 15.7275 11.0049 15.7275 12.0004L15.7233 12.1858C15.6781 13.1138 15.2949 13.9959 14.6431 14.6639C13.9479 15.3764 13.0017 15.7884 12.0066 15.8129H12.0045C11.4982 15.8216 10.9947 15.7298 10.5243 15.542C10.0542 15.3544 9.62604 15.075 9.26496 14.7202C8.90375 14.3652 8.61706 13.9414 8.42121 13.4743C8.24982 13.0656 8.15046 12.6306 8.1285 12.1889L8.12433 11.9993ZM17.4441 12.2702C17.3773 13.6174 16.8129 14.8962 15.8545 15.8545C14.8962 16.8129 13.6174 17.3773 12.2702 17.4441L12.0004 17.4504C11.2846 17.4504 10.5752 17.3097 9.91392 17.0358C9.25284 16.7619 8.65223 16.3605 8.14621 15.8545C7.64007 15.3484 7.23784 14.7471 6.96392 14.0858C6.69009 13.4247 6.54938 12.716 6.54933 12.0004C6.54933 11.2846 6.69 10.5752 6.96392 9.91392C7.23784 9.25263 7.64008 8.65233 8.14621 8.14621C8.65233 7.64008 9.25263 7.23784 9.91392 6.96392C10.5752 6.69 11.2846 6.54933 12.0004 6.54933L12.2702 6.55558C13.6174 6.62239 14.8962 7.18786 15.8545 8.14621C16.8765 9.16837 17.4504 10.5549 17.4504 12.0004L17.4441 12.2702ZM8.66183 12.1629C8.68077 12.5427 8.76551 12.9166 8.91288 13.2681C9.08134 13.6699 9.3282 14.0346 9.63892 14.34C9.94956 14.6452 10.3178 14.8858 10.7222 15.0472C11.0764 15.1886 11.4523 15.2662 11.8327 15.2785L11.9952 15.2795C12.8505 15.2581 13.6642 14.9034 14.2618 14.291C14.7848 13.7548 15.1063 13.0583 15.1785 12.3191L15.1941 12.0004C15.1941 11.1443 14.8596 10.3215 14.2618 9.70871C13.6638 9.09586 12.8491 8.74116 11.9931 8.72017L11.9587 8.71912C11.5355 8.71652 11.1155 8.79552 10.7222 8.95246C10.3177 9.11393 9.94957 9.35444 9.63892 9.65975C9.32827 9.96507 9.08133 10.3289 8.91288 10.7306C8.74443 11.1323 8.65768 11.5637 8.65767 11.9993L8.66183 12.1629Z" fill="#5755C4"/>
<path fill-rule="evenodd" clip-rule="evenodd" d="M9.26187 1.35573C9.34629 1.04442 9.53042 0.769357 9.78607 0.572663C10.0417 0.375968 10.3548 0.268483 10.6773 0.266667H13.2352C13.9147 0.266667 14.4832 0.733867 14.6517 1.35573L14.6549 1.36747L15.1275 3.33333C15.1477 3.41547 15.2203 3.51573 15.3621 3.57227C15.4261 3.59787 15.4891 3.62347 15.552 3.6512C15.6885 3.7088 15.808 3.69067 15.8805 3.648L17.5339 2.656C17.8119 2.48737 18.1384 2.41676 18.4613 2.45543C18.7842 2.4941 19.0848 2.63982 19.3152 2.86933L21.1307 4.6848C21.6075 5.1616 21.6853 5.89547 21.344 6.46507L20.352 8.1184C20.3083 8.18987 20.2901 8.3104 20.3477 8.44693C20.3755 8.51093 20.4011 8.57493 20.4277 8.64107C20.4843 8.78187 20.5835 8.8544 20.6656 8.87467L22.6176 9.3536C22.9351 9.42854 23.2179 9.60844 23.4204 9.86417C23.6229 10.1199 23.7332 10.4365 23.7333 10.7627V13.3205C23.7333 13.9904 23.2715 14.5792 22.6187 14.7307L20.6667 15.2107C20.5845 15.2299 20.4853 15.3024 20.4288 15.4432C20.4032 15.5083 20.3765 15.5733 20.3488 15.6373C20.2912 15.7739 20.3093 15.8933 20.352 15.9659L21.344 17.6192C21.6853 18.1888 21.6085 18.9227 21.1307 19.3995L19.3152 21.216C19.0849 21.4453 18.7845 21.5908 18.4618 21.6295C18.1392 21.6682 17.8129 21.5977 17.5349 21.4293L15.8816 20.4373C15.8101 20.3936 15.6896 20.3744 15.5531 20.4331C15.4879 20.4608 15.4225 20.4878 15.3568 20.5141C15.2171 20.5696 15.1435 20.6688 15.1232 20.7509L14.6549 22.6347L14.6528 22.6432C14.5686 22.9547 14.3845 23.23 14.1289 23.4269C13.8732 23.6238 13.56 23.7315 13.2373 23.7333H10.6795C10.3567 23.7318 10.0434 23.6244 9.78756 23.4277C9.5317 23.2309 9.34741 22.9558 9.26293 22.6443L8.79147 20.752C8.7712 20.6699 8.69867 20.5707 8.55893 20.5152C8.49321 20.4889 8.42778 20.4619 8.36267 20.4341C8.22613 20.3755 8.10667 20.3947 8.03413 20.4373L6.3808 21.4293C6.10286 21.5977 5.77655 21.6682 5.4539 21.6295C5.13125 21.5908 4.83083 21.4453 4.60053 21.216L2.784 19.4005C2.55474 19.1702 2.40917 18.8698 2.37051 18.5472C2.33184 18.2245 2.40231 17.8982 2.57067 17.6203L3.56267 15.9669C3.6064 15.8955 3.62453 15.7749 3.56693 15.6384C3.53875 15.5722 3.51137 15.5058 3.4848 15.4389C3.42933 15.2992 3.3312 15.2267 3.25013 15.2064L1.3792 14.7307C1.0626 14.655 0.78069 14.4749 0.578874 14.2195C0.377059 13.9641 0.267086 13.6482 0.266667 13.3227V10.7627C0.266667 10.0949 0.7264 9.50827 1.37813 9.35467L3.248 8.87893C3.33013 8.8576 3.42827 8.78613 3.48267 8.6464C3.5104 8.58027 3.53707 8.51307 3.56587 8.44693C3.62347 8.3104 3.60533 8.19093 3.56267 8.1184L2.57067 6.46507C2.40204 6.18702 2.33143 5.86049 2.37009 5.53761C2.40876 5.21472 2.55448 4.9141 2.784 4.68373L4.5984 2.86933C4.8287 2.64007 5.12912 2.49451 5.45177 2.45584C5.77442 2.41718 6.10072 2.48764 6.37867 2.656L8.032 3.648C8.10347 3.69173 8.224 3.70987 8.36053 3.65227L8.5504 3.57333C8.69227 3.5168 8.7648 3.41653 8.78507 3.3344L9.2576 1.36853L9.2608 1.35787L9.26187 1.35573ZM10.3776 3.7152L10.8139 1.904H13.1008L13.5371 3.7152C13.6971 4.37867 14.1845 4.86507 14.7552 5.09227L14.9109 5.15627C15.4688 5.3952 16.1483 5.39733 16.7243 5.05173L18.2603 4.12907L19.8709 5.73973L18.9483 7.27573C18.7887 7.54817 18.696 7.85453 18.6776 8.16971C18.6593 8.4849 18.7158 8.79995 18.8427 9.08907L18.9088 9.24693C19.1349 9.81547 19.6181 10.3029 20.2763 10.464L22.096 10.9109V13.1744L20.2763 13.6213C19.9681 13.7007 19.6832 13.8524 19.4454 14.0639C19.2076 14.2753 19.0236 14.5405 18.9088 14.8373C18.8875 14.8907 18.8661 14.944 18.8427 14.9963C18.716 15.2855 18.6596 15.6006 18.6781 15.9157C18.6967 16.2309 18.7896 16.5373 18.9493 16.8096L19.8709 18.3456L18.2603 19.9563L16.7243 19.0336C16.4518 18.874 16.1455 18.7813 15.8303 18.7629C15.5151 18.7446 15.2001 18.8011 14.9109 18.928L14.7509 18.9941C14.1845 19.2203 13.6981 19.7003 13.5349 20.3563L13.1029 22.096H10.8128L10.3797 20.3573C10.2997 20.0499 10.1477 19.766 9.93627 19.529C9.72483 19.2919 9.46002 19.1086 9.16373 18.9941C9.1104 18.9728 9.05707 18.9515 9.00373 18.928C8.71462 18.8011 8.39957 18.7446 8.08438 18.7629C7.76919 18.7813 7.46284 18.874 7.1904 19.0336L5.6544 19.9552L4.04373 18.3467L4.9664 16.8096C5.312 16.2336 5.30987 15.5541 5.072 14.9963C5.04895 14.9421 5.02655 14.8877 5.0048 14.8331C4.89106 14.5382 4.7091 14.2745 4.47382 14.0635C4.23855 13.8525 3.95665 13.7003 3.6512 13.6192L1.904 13.1755V10.9099L3.6512 10.4661C3.95665 10.3851 4.23855 10.2328 4.47382 10.0218C4.7091 9.81082 4.89106 9.54711 5.0048 9.25227L5.072 9.08907C5.19885 8.79995 5.25542 8.4849 5.23706 8.16971C5.21871 7.85453 5.12595 7.54817 4.9664 7.27573L4.04373 5.73973L5.6544 4.12907L7.1904 5.05173C7.7664 5.39733 8.44587 5.3952 9.00373 5.15733C9.05493 5.13493 9.1072 5.1136 9.15947 5.09333C9.73013 4.86507 10.2187 4.37867 10.3776 3.7152Z" fill="#5755C4"/>
<path d="M23.4625 10.6635C23.443 10.4331 23.3559 10.2127 23.2115 10.0302C23.0462 9.82156 22.8153 9.67469 22.5563 9.61354L22.5542 9.6125L20.6021 9.13333C20.4501 9.09583 20.3062 8.98573 20.2156 8.81667L20.1802 8.74063C20.1531 8.6734 20.1291 8.61315 20.1031 8.55313L20.1021 8.55104C20.0155 8.34582 20.0304 8.13418 20.1229 7.98125L21.1156 6.32813L21.1635 6.23854C21.3708 5.81641 21.3152 5.31026 21.0115 4.94896L20.9417 4.87292L19.1271 3.05833C18.9389 2.87088 18.6929 2.75137 18.4292 2.71979C18.1656 2.68834 17.8988 2.74674 17.6719 2.88438L16.0177 3.87708L16.0156 3.87813C15.8642 3.96711 15.655 3.98425 15.4479 3.89688L15.4448 3.89479L15.2635 3.81979C15.049 3.7343 14.9114 3.56985 14.8688 3.39688L14.8677 3.39583L14.3958 1.43021L14.3948 1.42604C14.2649 0.947187 13.8457 0.58107 13.3375 0.5375L13.2354 0.533333H10.6792L10.5802 0.5375C10.3512 0.557545 10.1322 0.643366 9.94896 0.784375C9.73953 0.945514 9.58791 1.171 9.51875 1.42604L9.5125 1.45104L9.51042 1.45208L9.04479 3.39688L9.04375 3.39792C9.00129 3.56998 8.8647 3.73289 8.65208 3.81875L8.65313 3.81979L8.4625 3.89896L8.46146 3.89792C8.25673 3.98351 8.04719 3.96846 7.89479 3.87604L6.24167 2.88438C6.01467 2.74687 5.74685 2.68926 5.48333 2.72083C5.25268 2.74851 5.03596 2.84292 4.85938 2.99167L4.78646 3.05833L2.97292 4.87188C2.78547 5.06002 2.66596 5.30609 2.63438 5.56979C2.60687 5.80031 2.6483 6.03299 2.75104 6.23958L2.79896 6.32708L3.79167 7.98125L3.79271 7.98333L3.82292 8.04271C3.88462 8.18691 3.8879 8.36985 3.81146 8.55104L3.81042 8.55313C3.78311 8.61582 3.75947 8.67166 3.73021 8.74167L3.73125 8.74271C3.64774 8.9572 3.48471 9.09331 3.31458 9.1375L1.44375 9.61354L1.43958 9.61458C0.909406 9.73954 0.53341 10.2174 0.533333 10.7625V13.3219L0.5375 13.4219C0.55722 13.6519 0.644516 13.8719 0.788542 14.0542C0.932622 14.2364 1.12656 14.3714 1.34583 14.4438L1.44167 14.4708L1.44479 14.4719L3.31563 14.9479C3.4887 14.9912 3.6486 15.1298 3.73229 15.3406L3.8125 15.5344L3.84063 15.6125C3.89447 15.7932 3.8725 15.9724 3.79063 16.1063L2.79896 17.7573C2.66146 17.9843 2.60384 18.2521 2.63542 18.5156C2.66697 18.7786 2.78527 19.0236 2.97188 19.2115L4.78854 21.0271L4.86146 21.0938C5.03803 21.2425 5.25479 21.3369 5.48542 21.3646C5.74893 21.3962 6.01571 21.3385 6.24271 21.201L7.89688 20.2083L7.89896 20.2073L7.95833 20.1781C8.10144 20.1166 8.28368 20.1103 8.46667 20.1885C8.52985 20.2155 8.59456 20.2422 8.65833 20.2677C8.87034 20.3519 9.00705 20.5145 9.05 20.6875L9.52188 22.5792C9.59166 22.8324 9.7417 23.0565 9.95 23.2167C10.1596 23.3778 10.4169 23.4654 10.6813 23.4667H13.2354C13.4998 23.4651 13.7572 23.3769 13.9667 23.2156C14.1747 23.0553 14.3242 22.8313 14.3938 22.5781L14.3958 22.5698L14.8646 20.6865C14.9078 20.5124 15.0472 20.3504 15.2573 20.2667L15.449 20.1875C15.6563 20.0988 15.8674 20.1168 16.0188 20.2083L17.6719 21.201L17.7604 21.249C17.967 21.3515 18.1998 21.3922 18.4302 21.3646C18.6937 21.333 18.939 21.2143 19.1271 21.0271L20.9427 19.2104L21.0115 19.1354C21.3158 18.7744 21.371 18.2683 21.1635 17.8458L21.1156 17.7563L20.1229 16.1031L20.1219 16.101C20.0329 15.9496 20.0157 15.7405 20.1031 15.5333L20.1042 15.5313L20.1802 15.3458L20.1813 15.3438L20.2167 15.2677C20.2943 15.1228 20.4113 15.02 20.5406 14.9708L20.6063 14.951L22.5552 14.4719L22.5583 14.4708L22.6563 14.4438C23.1346 14.2876 23.4665 13.8339 23.4667 13.3208V10.7625L23.4625 10.6635ZM13.3104 1.6375L13.3604 1.84167L13.7958 3.65313L13.8604 3.85938C14.014 4.25804 14.3128 4.56885 14.6708 4.75938L14.8542 4.84479L14.8563 4.84583L15.0125 4.90938L15.0156 4.91146L15.2042 4.97917C15.6511 5.11507 16.1547 5.08181 16.5865 4.82292L18.1229 3.9L18.301 3.79271L20.2073 5.69896L20.1 5.87708L19.1771 7.41354L19.176 7.4125C19.0387 7.64796 18.9596 7.91325 18.9438 8.18542C18.9318 8.39033 18.9561 8.59529 19.0156 8.79063L19.0865 8.98229L19.0885 8.98646L19.1552 9.14375L19.1563 9.14792L19.2417 9.33125C19.4629 9.7478 19.8464 10.0845 20.3396 10.2052L22.3625 10.7021V13.3833L20.3396 13.8802C20.0736 13.9492 19.8282 14.081 19.6229 14.2635C19.4168 14.4468 19.2568 14.6761 19.1573 14.9333L19.1563 14.9365C19.1353 14.9888 19.1125 15.0472 19.0865 15.1052L19.0854 15.1042C18.976 15.3544 18.9288 15.6274 18.9448 15.9C18.9608 16.1724 19.0404 16.4374 19.1781 16.6729L20.1 18.2083L20.2063 18.3865L20.0594 18.5344L18.449 20.1448L18.301 20.2917L18.1229 20.1844L16.5865 19.2625C16.3512 19.1254 16.0865 19.045 15.8146 19.0292C15.5415 19.0133 15.2682 19.062 15.0177 19.1719L15.0125 19.175L14.8531 19.2406L14.85 19.2417C14.4146 19.4155 14.0389 19.7574 13.8583 20.2167L13.7938 20.4208L13.3615 22.1604L13.3115 22.3625H10.6042L10.5542 22.1604L10.1208 20.4219C10.0512 20.1568 9.91994 19.9108 9.7375 19.7063C9.55423 19.5008 9.32453 19.3419 9.06771 19.2427L9.06458 19.2417C9.01195 19.2206 8.95395 19.1974 8.89583 19.1719C8.64563 19.0623 8.37269 19.0133 8.1 19.0292C7.82749 19.045 7.56173 19.1238 7.32604 19.2615L7.32708 19.2625L5.79167 20.1844L5.61354 20.2906L5.46563 20.1438L3.70833 18.3885L3.81458 18.2094L4.7375 16.6719C4.99655 16.2399 5.03032 15.7358 4.89479 15.2885L4.82708 15.101C4.8032 15.045 4.77983 14.9879 4.75729 14.9313L4.75625 14.9292C4.6577 14.6737 4.49964 14.4453 4.29583 14.2625C4.09262 14.0803 3.8491 13.9486 3.58542 13.8781L1.6375 13.3833V10.7021L3.58542 10.2073C3.84911 10.1368 4.09261 10.0052 4.29583 9.82292C4.49966 9.64008 4.6577 9.41172 4.75625 9.15625L4.75833 9.15104L4.825 8.9875L4.82813 8.98229L4.89896 8.79063C4.95844 8.59528 4.98274 8.39034 4.97083 8.18542C4.95497 7.91306 4.87505 7.64809 4.7375 7.4125L3.81563 5.87708L3.70833 5.69896L3.85521 5.55104L5.61354 3.79271L5.79167 3.9L7.32813 4.82292C7.82168 5.11905 8.40951 5.12108 8.89896 4.9125C8.95266 4.88904 9.00679 4.86666 9.06042 4.84583L9.24375 4.76042C9.66204 4.53728 9.99955 4.15072 10.1188 3.65313L10.5542 1.84167L10.6042 1.6375H13.3104ZM10.6365 3.77813C10.4546 4.53611 9.89823 5.08467 9.25833 5.34063L9.25625 5.34167C9.20687 5.36081 9.15758 5.38145 9.11042 5.40208L9.10833 5.40313C8.52137 5.65334 7.8074 5.67369 7.17813 5.35L7.05313 5.28021L5.69479 4.46458L4.37917 5.78021L5.19479 7.13854L5.19688 7.14063L5.31771 7.37917C5.42458 7.62387 5.48751 7.8862 5.50313 8.15417C5.5238 8.50918 5.4596 8.86357 5.31771 9.18958L5.31875 9.19063L5.25104 9.35417L5.25 9.35313C5.12096 9.68506 4.91726 9.98303 4.65208 10.2208C4.38552 10.4598 4.06583 10.6321 3.71979 10.724L3.71667 10.725L2.17083 11.1167V12.9677L3.71667 13.3604L3.71979 13.3615L3.97396 13.4448C4.22232 13.5433 4.45212 13.6853 4.65208 13.8646C4.91795 14.103 5.12311 14.4014 5.25208 14.7344L5.31771 14.8917L5.40521 15.1323C5.56741 15.6672 5.54521 16.2763 5.26458 16.8219L5.19479 16.9469L4.37917 18.3052L5.69479 19.6188L7.05313 18.8052L7.05521 18.8031L7.29375 18.6823C7.53845 18.5754 7.80079 18.5125 8.06875 18.4969C8.33675 18.4813 8.60493 18.5129 8.86042 18.5906L9.11042 18.6833L9.11146 18.6844L9.2625 18.7469C9.59742 18.8766 9.89629 19.083 10.1354 19.351C10.3152 19.5526 10.4573 19.7843 10.5552 20.0344L10.6375 20.2906L10.6385 20.2927L11.0219 21.8292H12.8938L13.276 20.2917L13.3156 20.1542C13.5321 19.4767 14.0547 18.9862 14.649 18.7479L14.8094 18.6813C15.1355 18.5392 15.4906 18.4762 15.8458 18.4969C16.1138 18.5125 16.3761 18.5754 16.6208 18.6823L16.8594 18.8031L16.8615 18.8052L18.2188 19.6198L19.5354 18.3031L18.7208 16.9469L18.7198 16.9448C18.5388 16.6361 18.4325 16.2885 18.4115 15.9313C18.3905 15.5742 18.4545 15.2172 18.5979 14.8896L18.599 14.8875L18.6615 14.7385C18.7916 14.4034 18.999 14.1036 19.2677 13.8646C19.5371 13.625 19.8603 13.4535 20.2094 13.3635L20.2125 13.3625L21.8292 12.9646V11.1198L20.2125 10.7229C19.4615 10.539 18.9168 9.98532 18.6625 9.34896L18.5969 9.19167C18.4547 8.86543 18.3908 8.50949 18.4115 8.15417C18.4323 7.79695 18.5369 7.44939 18.7177 7.14063L18.7198 7.13854L19.5344 5.78021L18.2188 4.46458L16.8615 5.28021C16.2042 5.67456 15.4353 5.66907 14.8094 5.40208L14.6563 5.33958L14.4208 5.23021C13.9214 4.96429 13.5021 4.51171 13.3167 3.91771L13.2781 3.77813L12.8906 2.17083H11.024L10.6365 3.77813ZM24 13.3208C23.9999 14.1129 23.4542 14.8107 22.6792 14.9906L22.6781 14.9896L20.7302 15.4698L20.7271 15.4708C20.7194 15.4756 20.6959 15.4932 20.676 15.5427C20.6499 15.6091 20.6235 15.6765 20.5948 15.7427C20.5731 15.7951 20.5804 15.8241 20.5823 15.8302H20.5802L21.5729 17.4823L21.6427 17.6104C21.962 18.2607 21.8498 19.056 21.3188 19.5865L21.3198 19.5875L19.5031 21.4052C19.2307 21.6763 18.8753 21.848 18.4938 21.8938C18.1123 21.9395 17.7266 21.8562 17.3979 21.6573L15.7448 20.6656L15.7427 20.6646C15.7512 20.6697 15.7223 20.6506 15.6583 20.6781C15.5916 20.7066 15.5236 20.7345 15.4563 20.7615L15.4552 20.7625C15.3869 20.7897 15.3797 20.8249 15.3823 20.8146L14.9135 22.699L14.9115 22.7083L14.9104 22.7125C14.811 23.0803 14.5935 23.406 14.2917 23.6385C13.9898 23.871 13.6195 23.9978 13.2385 24H10.6781C10.2972 23.9981 9.92706 23.8717 9.625 23.6396C9.323 23.4074 9.105 23.0822 9.00521 22.7146L9.00417 22.7094L9.00208 22.7L8.53229 20.8167C8.52867 20.8102 8.51215 20.7841 8.46042 20.7635L8.45938 20.7625C8.39202 20.7356 8.32507 20.7076 8.25833 20.6792C8.20632 20.6568 8.1758 20.6646 8.16979 20.6667L8.16875 20.6656L6.51771 21.6583L6.51667 21.6573C6.18813 21.8558 5.80303 21.9394 5.42188 21.8938C5.0403 21.8479 4.6849 21.6763 4.4125 21.4052L2.59479 19.5885C2.32369 19.3161 2.15205 18.9607 2.10625 18.5792C2.0605 18.1974 2.14353 17.8112 2.34271 17.4823L3.33438 15.8302L3.33542 15.8281L3.33646 15.8135C3.33723 15.7992 3.33486 15.7749 3.32083 15.7417C3.29216 15.6743 3.26455 15.6055 3.2375 15.5375C3.21736 15.4868 3.19239 15.4698 3.18542 15.4656L3.18438 15.4646L1.31354 14.9896V14.9875C0.940336 14.8973 0.607876 14.6857 0.369792 14.3844C0.130957 14.082 0.000496461 13.7082 0 13.3229V10.7625C7.63661e-05 9.97374 0.541649 9.27965 1.3125 9.09583L3.18125 8.62083L3.19583 8.61042C3.20669 8.60061 3.22169 8.58249 3.23438 8.55L3.23646 8.54375L3.31979 8.34375L3.33542 8.27083C3.33459 8.25644 3.33166 8.25027 3.33333 8.25313L2.34167 6.60208C2.14312 6.27364 2.05965 5.88737 2.10521 5.50625C2.15095 5.12433 2.32338 4.76839 2.59479 4.49583L4.41042 2.68021L4.51667 2.58333C4.77239 2.36816 5.08591 2.23067 5.41979 2.19063C5.8008 2.14497 6.18613 2.22874 6.51458 2.42708L8.16875 3.41979L8.17083 3.42083L8.18542 3.42188C8.19978 3.42265 8.22407 3.42026 8.25729 3.40625L8.44792 3.32708L8.45208 3.32604L8.49271 3.30417C8.52397 3.28273 8.52765 3.2643 8.52604 3.27083L8.99792 1.30625L9.00208 1.29167L9.00521 1.28125L9.0125 1.25938V1.25729C9.11554 0.901484 9.32996 0.587659 9.62396 0.361458C9.92577 0.129328 10.2953 0.00214435 10.676 0H13.2354L13.3844 0.00625C14.122 0.0696265 14.723 0.598471 14.9094 1.28542L14.9125 1.29688L14.9146 1.30521L15.3865 3.26979L15.3969 3.28333C15.4071 3.29473 15.4259 3.31122 15.4604 3.325L15.6542 3.40521C15.6867 3.41895 15.7121 3.42154 15.7271 3.42083L15.7458 3.41771L17.3969 2.42708C17.7255 2.22819 18.1113 2.14502 18.4927 2.19063C18.8747 2.23637 19.2306 2.40877 19.5031 2.68021L21.3188 4.49583L21.4198 4.60521C21.8628 5.13155 21.941 5.86638 21.6427 6.47396L21.5729 6.60208L20.5802 8.25521L20.5792 8.25729C20.5851 8.24751 20.5661 8.27576 20.5927 8.34063L20.675 8.54167L20.6969 8.58333C20.7182 8.61417 20.7362 8.61737 20.7292 8.61563L22.6781 9.09375C23.0539 9.18252 23.3894 9.39621 23.6292 9.69896C23.8689 10.0017 23.9998 10.3763 24 10.7625V13.3208Z" fill="#5755C4"/>
</svg>
