<svg width="168" height="168" viewBox="0 0 168 168" fill="none" xmlns="http://www.w3.org/2000/svg">
<g clip-path="url(#clip0_755_1384)">
<rect width="168" height="168" rx="12" fill="white"/>
<g clip-path="url(#clip1_755_1384)">
<path d="M157.493 44.0067C144.941 31.4549 128.251 24.5417 110.5 24.5417C92.7485 24.5417 76.0588 31.4547 63.5065 44.0067C50.9547 56.559 44.0415 73.2486 44.0415 91C44.0415 108.751 50.9545 125.441 63.5065 137.993C76.0588 150.545 92.7485 157.458 110.5 157.458C128.251 157.458 144.941 150.545 157.493 137.993C170.045 125.441 176.958 108.751 176.958 91C176.958 73.2486 170.045 56.559 157.493 44.0067ZM72.8847 135.988C75.0794 117.106 91.3136 102.528 110.5 102.528C120.614 102.528 130.125 106.469 137.279 113.622C143.323 119.667 147.135 127.559 148.116 135.987C137.925 144.523 124.802 149.67 110.5 149.67C96.1973 149.67 83.0762 144.524 72.8847 135.988ZM110.5 94.5065C99.3704 94.5065 90.3147 85.451 90.3147 74.3216C90.3147 63.1911 99.3707 54.1364 110.5 54.1364C121.629 54.1364 130.685 63.1911 130.685 74.3216C130.685 85.451 121.629 94.5067 110.5 94.5067V94.5065ZM154.819 129.404C152.818 121.346 148.658 113.986 142.786 108.116C138 103.329 132.337 99.7383 126.161 97.488C133.585 92.4533 138.473 83.9471 138.473 74.3216C138.473 58.8975 125.924 46.3483 110.5 46.3483C95.0758 46.3483 82.5266 58.8975 82.5266 74.3216C82.5266 83.9523 87.4185 92.4613 94.8486 97.4953C89.1667 99.5659 83.909 102.767 79.3851 106.982C72.8341 113.082 68.285 120.861 66.1758 129.398C57.2428 119.1 51.8296 105.671 51.8296 91C51.8296 58.6491 78.1489 32.3298 110.5 32.3298C142.851 32.3298 169.17 58.6491 169.17 91C169.17 105.674 163.755 119.106 154.819 129.404Z" fill="#5755C4" fill-opacity="0.15"/>
<path d="M110.5 24.2917C128.317 24.2917 145.07 31.2313 157.669 43.8298C170.268 56.4289 177.208 73.1821 177.208 90.9997C177.208 108.817 170.268 125.57 157.669 138.17C145.07 150.769 128.317 157.709 110.5 157.709C92.6819 157.709 75.9287 150.768 63.3296 138.17C50.7308 125.57 43.7915 108.817 43.7915 90.9997C43.7916 73.1821 50.731 56.4289 63.3296 43.8298C75.9287 31.2309 92.6819 24.2918 110.5 24.2917ZM110.5 102.778C91.4865 102.778 75.3914 117.192 73.1499 135.883C83.2834 144.33 96.3067 149.421 110.5 149.421C124.692 149.421 137.717 144.329 147.85 135.882C146.851 127.56 143.075 119.771 137.103 113.799C129.996 106.692 120.547 102.778 110.5 102.778ZM110.5 32.5798C78.2869 32.5799 52.0798 58.7871 52.0796 90.9997C52.0796 105.435 57.3454 118.661 66.0532 128.867C68.2234 120.468 72.7485 112.82 79.2144 106.799C83.6441 102.672 88.7755 99.5138 94.3179 97.4284C87.0431 92.319 82.277 83.8685 82.2769 74.322C82.2769 58.76 94.9375 46.0985 110.5 46.0983C126.062 46.0983 138.723 58.7598 138.723 74.322C138.723 83.8625 133.962 92.3095 126.694 97.4196C132.73 99.6912 138.266 103.243 142.962 107.939C148.752 113.727 152.885 120.956 154.94 128.874C163.651 118.668 168.92 105.438 168.92 90.9997C168.92 58.787 142.712 32.5798 110.5 32.5798ZM110.5 54.3864C99.5085 54.3866 90.5649 63.3297 90.5649 74.322C90.5652 85.313 99.5084 94.2564 110.5 94.2565L111.013 94.2507C121.768 93.9774 130.435 85.1415 130.435 74.322C130.435 63.3296 121.491 54.3864 110.5 54.3864Z" stroke="#5755C4" stroke-opacity="0.15" stroke-width="0.5"/>
</g>
</g>
<defs>
<clipPath id="clip0_755_1384">
<rect width="168" height="168" fill="white"/>
</clipPath>
<clipPath id="clip1_755_1384">
<rect width="145" height="145" fill="white" transform="translate(38 18)"/>
</clipPath>
</defs>
</svg>
