<svg width="121" height="155" viewBox="0 0 121 155" fill="none" xmlns="http://www.w3.org/2000/svg">
<path fill-rule="evenodd" clip-rule="evenodd" d="M83.9583 132.68H22.2812C22.1117 132.68 21.9438 132.647 21.7874 132.581C21.631 132.516 21.4893 132.42 21.3705 132.299C21.2496 132.18 21.1535 132.038 21.0881 131.882C21.0227 131.726 20.9891 131.558 20.9895 131.388V122.024C20.9895 116.657 24.8193 111.929 30.7222 107.912C41.2622 100.718 58.3187 96.1904 77.4999 96.1904C78.7846 96.1904 80.0166 95.6801 80.925 94.7717C81.8333 93.8633 82.3437 92.6313 82.3437 91.3467C82.3437 90.062 81.8333 88.83 80.925 87.9216C80.0166 87.0132 78.7846 86.5029 77.4999 86.5029C56.0453 86.5029 37.0514 91.8633 25.2585 99.9104C16.262 106.046 11.302 113.841 11.302 122.024V131.388C11.302 134.3 12.4587 137.093 14.5177 139.152C16.5767 141.211 19.3693 142.367 22.2812 142.367H83.9583C85.2429 142.367 86.4749 141.857 87.3833 140.949C88.2917 140.04 88.802 138.808 88.802 137.524C88.802 136.239 88.2917 135.007 87.3833 134.099C86.4749 133.19 85.2429 132.68 83.9583 132.68ZM77.4999 9.8877C68.0808 9.89283 59.0489 13.6368 52.3886 20.2972C45.7282 26.9575 41.9842 35.9894 41.9791 45.4085C41.9791 65.016 57.8924 80.9294 77.4999 80.9294C97.1074 80.9294 113.021 65.016 113.021 45.4085C113.021 25.8075 97.1074 9.8877 77.4999 9.8877ZM77.4999 19.5752C91.7599 19.5752 103.333 31.155 103.333 45.4085C103.333 59.6685 91.7599 71.2419 77.4999 71.2419C63.2399 71.2419 51.6666 59.6685 51.6666 45.4085C51.6666 31.155 63.2399 19.5752 77.4999 19.5752Z" fill="#5755C4" fill-opacity="0.15"/>
<path fill-rule="evenodd" clip-rule="evenodd" d="M91.2238 89.4091C86.1753 94.5766 83.3676 101.526 83.4096 108.75C83.4517 115.974 86.3402 122.891 91.4485 127.999C96.5568 133.107 103.473 135.996 110.697 136.038C117.921 136.08 124.871 133.272 130.038 128.224C135.186 123.077 138.079 116.095 138.079 108.815C138.08 101.536 135.189 94.5539 130.042 89.4059C124.894 84.2579 117.913 81.3655 110.633 81.3649C103.354 81.3643 96.3718 84.262 91.2238 89.4091ZM98.0696 96.255C101.403 92.9272 105.921 91.0581 110.631 91.0581C115.341 91.0581 119.859 92.9272 123.193 96.255C126.52 99.5874 128.389 104.104 128.389 108.813C128.389 113.522 126.52 118.039 123.193 121.371C119.859 124.699 115.341 126.568 110.631 126.568C105.921 126.568 101.403 124.699 98.0696 121.371C94.7422 118.039 92.8733 113.522 92.8733 108.813C92.8733 104.104 94.7422 99.5874 98.0696 96.255Z" fill="#5755C4" fill-opacity="0.15"/>
</svg>
