<svg width="168" height="168" viewBox="0 0 168 168" fill="none" xmlns="http://www.w3.org/2000/svg">
<g clip-path="url(#clip0_755_3359)">
<rect width="168" height="168" rx="12" fill="white"/>
<path d="M107.005 87.6979C107.005 89.9674 105.164 91.8068 102.896 91.8068C100.626 91.8068 98.7869 89.9674 98.7869 87.6979C98.7869 85.4285 100.626 83.5891 102.896 83.5891C105.164 83.5891 107.005 85.4285 107.005 87.6979Z" fill="#5755C4" fill-opacity="0.15"/>
<path d="M102.896 83.4894C105.22 83.4897 107.104 85.3739 107.104 87.6984C107.104 90.0228 105.22 91.9062 102.896 91.9064C100.572 91.9064 98.6875 90.0229 98.6873 87.6984C98.6873 85.3737 100.572 83.4894 102.896 83.4894Z" stroke="#5755C4" stroke-opacity="0.15" stroke-width="0.2"/>
<path d="M166.711 57.1844H155.417V50.29C155.417 37.083 144.731 26.3763 131.503 26.3763H74.2889C61.0816 26.3763 50.375 37.0605 50.375 50.29V127.31C50.375 130.744 54.4025 132.725 57.1141 130.466L82.3782 109.412H85.584V120.707C85.584 133.915 96.2682 144.621 109.498 144.621H158.623L183.886 165.674C184.624 166.29 185.555 166.627 186.517 166.626C188.776 166.626 190.625 164.794 190.625 162.517V81.0973C190.625 67.89 179.941 57.1844 166.711 57.1844ZM80.8894 101.194C79.9284 101.194 78.9978 101.531 78.2595 102.147L58.5928 118.536V50.2903C58.5928 41.6208 65.6058 34.5941 74.2887 34.5941H131.503C140.171 34.5941 147.199 41.6071 147.199 50.29V85.4993C147.199 94.1537 140.157 101.194 131.503 101.194H80.8894ZM182.407 153.745L162.74 137.356C162.002 136.741 161.071 136.403 160.11 136.403H109.497C105.304 136.403 101.363 134.77 98.3985 131.806C95.4335 128.842 93.8006 124.9 93.8006 120.707V109.412H131.502C136.642 109.412 141.409 107.781 145.313 105.011H164.51C166.779 105.011 168.619 103.172 168.619 100.902C168.619 98.634 166.779 96.7932 164.51 96.7932H152.576C154.139 93.8904 155.08 90.6938 155.34 87.4072H164.51C166.779 87.4072 168.619 85.5678 168.619 83.2983C168.619 81.0288 166.779 79.1894 164.51 79.1894H155.415V65.4022H166.711C170.905 65.4022 174.846 67.034 177.81 69.9989C180.774 72.9628 182.407 76.9046 182.407 81.0973V153.745Z" fill="#5755C4" fill-opacity="0.15"/>
<path d="M131.503 26.2767C144.787 26.2768 155.517 37.0282 155.517 50.2904V57.0844H166.711C179.996 57.0844 190.724 67.8347 190.725 81.097V162.518C190.724 164.849 188.83 166.726 186.517 166.726C185.532 166.726 184.578 166.381 183.821 165.75L158.586 144.721H109.498C96.2133 144.721 85.4844 133.97 85.4844 120.707V109.512H82.4141L57.1777 130.542V130.543C54.3994 132.857 50.2757 130.827 50.2754 127.31V50.2904C50.2754 37.0056 61.0266 26.2767 74.2891 26.2767H131.503ZM155.516 79.0892H164.51C166.834 79.0892 168.719 80.9735 168.719 83.2982C168.719 85.6229 166.834 87.5072 164.51 87.5072H155.431C155.164 90.7198 154.249 93.8443 152.741 96.6927H164.51C166.834 96.6927 168.719 98.5786 168.719 100.902C168.719 103.227 166.834 105.111 164.51 105.111H145.344C141.429 107.881 136.652 109.512 131.502 109.512H93.9004V120.707C93.9005 124.873 95.5228 128.79 98.4688 131.735C101.414 134.681 105.331 136.303 109.497 136.303H160.11C161.095 136.303 162.048 136.649 162.804 137.279L182.307 153.531V81.097C182.307 76.9311 180.685 73.0147 177.74 70.0697C174.794 67.1235 170.878 65.5023 166.711 65.5023H155.516V79.0892ZM74.2891 34.6937C65.6615 34.6937 58.6924 41.6761 58.6924 50.2904V118.322L78.1953 102.07C78.9516 101.44 79.9052 101.094 80.8896 101.094H131.503C140.102 101.094 147.099 94.0985 147.099 85.4994V50.2904C147.099 41.6628 140.116 34.6938 131.503 34.6937H74.2891Z" stroke="#5755C4" stroke-opacity="0.15" stroke-width="0.2"/>
<path d="M96.0017 59.0867C96.0017 57.2462 96.7189 55.5172 98.02 54.215C99.3211 52.9138 101.051 52.197 102.896 52.197C106.697 52.197 109.79 55.2904 109.79 59.0911C109.79 62.8929 106.697 65.9853 102.896 65.9853C100.626 65.9853 98.787 67.8244 98.787 70.0942V74.4951C98.787 76.7634 100.626 78.604 102.896 78.604C105.165 78.604 107.005 76.7634 107.005 74.4951V73.6349C113.347 71.8405 118.007 66.0001 118.007 59.0911C118.007 50.7578 111.228 43.9792 102.891 43.9792C98.8566 43.9792 95.0624 45.551 92.2084 48.4036C89.356 51.2574 87.7839 55.0518 87.7839 59.0856V59.09C87.7839 61.3595 89.6233 63.1967 91.8928 63.1967C94.1623 63.1967 96.0017 61.3562 96.0017 59.0867ZM164.511 114.396H111.698C109.428 114.396 107.589 116.237 107.589 118.505C107.589 120.775 109.428 122.614 111.698 122.614H164.511C166.779 122.614 168.62 120.775 168.62 118.505C168.62 116.237 166.779 114.396 164.511 114.396Z" fill="#5755C4" fill-opacity="0.15"/>
<path d="M164.511 114.297C166.835 114.297 168.72 116.182 168.72 118.506C168.72 120.83 166.835 122.713 164.511 122.714H111.698C109.373 122.713 107.489 120.83 107.489 118.506C107.489 116.182 109.373 114.297 111.698 114.297H164.511ZM102.891 43.8796C111.283 43.8796 118.107 50.7029 118.107 59.0915C118.107 66.0195 113.452 71.8782 107.105 73.7087V74.4948C107.105 76.8183 105.22 78.7036 102.896 78.7038C100.572 78.7038 98.6873 76.8184 98.6873 74.4948V70.0944C98.6873 67.7694 100.572 65.8854 102.896 65.8854C106.641 65.8852 109.69 62.8378 109.69 59.0915C109.69 55.3461 106.642 52.2968 102.896 52.2966C101.078 52.2966 99.373 53.0035 98.0906 54.2858C96.8083 55.5693 96.1014 57.2728 96.1013 59.0866C96.1013 61.4111 94.2178 63.2963 91.8933 63.2966C89.5688 63.2966 87.6846 61.4151 87.6843 59.0905V59.0856C87.6843 55.0253 89.2663 51.2052 92.1375 48.3327C95.0102 45.4613 98.83 43.8796 102.891 43.8796Z" stroke="#5755C4" stroke-opacity="0.15" stroke-width="0.2"/>
</g>
<defs>
<clipPath id="clip0_755_3359">
<rect width="168" height="168" fill="white"/>
</clipPath>
</defs>
</svg>
