<svg width="23" height="23" viewBox="0 0 23 23" fill="none" xmlns="http://www.w3.org/2000/svg">
<path d="M21.1696 8.70763L14.1548 1.81203C13.2867 0.961226 12.1168 0.489556 10.9017 0.500414C9.68652 0.511271 8.52526 1.00377 7.67244 1.86995L0.781972 8.88979C0.527982 9.14686 0.327515 9.45181 0.192191 9.78698C0.056867 10.1222 -0.0106218 10.4809 -0.00636319 10.8423L0.0740865 19.8463C0.0806068 20.576 0.376579 21.2733 0.896894 21.7847C1.41721 22.2961 2.11924 22.5798 2.84856 22.5732L19.3479 22.4258C20.0772 22.4193 20.7741 22.1232 21.2851 21.6025C21.7962 21.0819 22.0797 20.3795 22.0732 19.6497L21.9927 10.6458C21.9905 10.2843 21.9166 9.92684 21.7754 9.59414C21.6341 9.26144 21.4282 8.96012 21.1696 8.70763ZM13.8317 20.6406L8.33194 20.6897L8.2997 17.0816C8.29318 16.3518 8.57665 15.6494 9.08774 15.1287C9.59884 14.6081 10.2957 14.312 11.025 14.3055C11.7543 14.2989 12.4564 14.5826 12.9767 15.094C13.497 15.6054 13.793 16.3027 13.7995 17.0324L13.8317 20.6406ZM20.2399 19.6661C20.2421 19.9093 20.1476 20.1435 19.9772 20.317C19.8069 20.4906 19.5746 20.5893 19.3315 20.5915L15.665 20.6242L15.6327 17.016C15.6219 15.7998 15.1286 14.6377 14.2614 13.7853C13.3942 12.933 12.2241 12.4602 11.0086 12.4711C9.79309 12.482 8.63167 12.9755 7.77984 13.8432C6.92802 14.7109 6.45558 15.8817 6.46645 17.0979L6.49868 20.7061L2.83217 20.7389C2.58906 20.7411 2.35505 20.6465 2.18161 20.476C2.00818 20.3056 1.90952 20.0731 1.90734 19.8299L1.82689 10.8259C1.82557 10.5829 1.91998 10.349 2.08967 10.1751L8.98016 3.15801C9.49227 2.63879 10.189 2.34364 10.9181 2.33713C11.6471 2.33061 12.349 2.61326 12.8703 3.12325L19.8851 10.0189C20.0572 10.1891 20.1557 10.42 20.1595 10.6621L20.2399 19.6661Z" fill="#5755C4"/>
</svg>
