<svg width="24" height="23" viewBox="0 0 24 23" fill="none" xmlns="http://www.w3.org/2000/svg">
<path d="M19.7782 3.7218C17.7006 1.64426 14.9382 0.5 12 0.5C9.06184 0.5 6.29942 1.64421 4.2218 3.7218C2.14426 5.79942 1 8.56184 1 11.5C1 14.4382 2.14421 17.2006 4.2218 19.2782C6.29942 21.3557 9.06184 22.5 12 22.5C14.9382 22.5 17.7006 21.3558 19.7782 19.2782C21.8557 17.2006 23 14.4382 23 11.5C23 8.56184 21.8558 5.79942 19.7782 3.7218ZM5.77404 18.9464C6.1373 15.821 8.82435 13.4081 12 13.4081C13.6741 13.4081 15.2484 14.0603 16.4325 15.2443C17.4328 16.2449 18.0638 17.5512 18.2261 18.9462C16.5393 20.359 14.3673 21.2109 12 21.2109C9.63268 21.2109 7.46091 20.3591 5.77404 18.9464ZM12 12.0804C10.1579 12.0804 8.65901 10.5815 8.65901 8.73943C8.65901 6.89714 10.1579 5.39844 12 5.39844C13.8421 5.39844 15.341 6.89714 15.341 8.73943C15.341 10.5815 13.8421 12.0804 12 12.0804V12.0804ZM19.3356 17.8565C19.0044 16.5228 18.3158 15.3046 17.3439 14.3329C16.5517 13.5407 15.6144 12.9463 14.5922 12.5739C15.821 11.7405 16.6301 10.3326 16.6301 8.73943C16.6301 6.18648 14.5529 4.10938 12 4.10938C9.44705 4.10938 7.36995 6.18648 7.36995 8.73943C7.36995 10.3335 8.17965 11.7419 9.40946 12.5751C8.469 12.9178 7.59875 13.4477 6.84998 14.1452C5.76566 15.155 5.01272 16.4426 4.6636 17.8555C3.18505 16.151 2.28906 13.9283 2.28906 11.5C2.28906 6.14536 6.64536 1.78906 12 1.78906C17.3546 1.78906 21.7109 6.14536 21.7109 11.5C21.7109 13.9287 20.8146 16.1521 19.3356 17.8565Z" fill="#A0A0A0" stroke="#A0A0A0" stroke-width="0.5"/>
</svg>
