<svg width="24" height="23" viewBox="0 0 24 23" fill="none" xmlns="http://www.w3.org/2000/svg">
<path d="M9.8833 10.1191C9.8833 10.4751 9.59464 10.7637 9.23877 10.7637C8.88277 10.7637 8.59424 10.4751 8.59424 10.1191C8.59424 9.76314 8.88277 9.47461 9.23877 9.47461C9.59464 9.47461 9.8833 9.76314 9.8833 10.1191Z" fill="#5755C4" stroke="#5755C4" stroke-width="0.2"/>
<path d="M19.2488 5.33264H17.4771V4.25116C17.4771 2.17947 15.801 0.5 13.7259 0.5H4.75121C2.67947 0.5 1 2.17595 1 4.25116V16.3327C1 16.8714 1.63177 17.1822 2.05712 16.8278L6.02011 13.5252H6.52298V15.297C6.52298 17.3688 8.19893 19.0482 10.2741 19.0482H17.98L21.9428 22.3506C22.0587 22.4472 22.2048 22.5001 22.3556 22.5C22.7099 22.5 23 22.2125 23 21.8555V9.08368C23 7.01194 21.324 5.33264 19.2488 5.33264ZM5.78658 12.2362C5.63583 12.2362 5.48985 12.289 5.37404 12.3855L2.28906 14.9564V4.25121C2.28906 2.89129 3.38914 1.78906 4.75116 1.78906H13.7259C15.0857 1.78906 16.188 2.88914 16.188 4.25116V9.77418C16.188 11.1317 15.0835 12.2362 13.7259 12.2362H5.78658ZM21.7109 20.4794L18.6259 17.9085C18.5101 17.812 18.3641 17.7592 18.2133 17.7591H10.274C9.61638 17.7591 8.99806 17.503 8.53309 17.0379C8.068 16.573 7.81187 15.9546 7.81187 15.297V13.5252H13.7258C14.5321 13.5252 15.2799 13.2694 15.8922 12.8348H18.9035C19.2595 12.8348 19.548 12.5464 19.548 12.1903C19.548 11.8345 19.2595 11.5458 18.9035 11.5458H17.0315C17.2767 11.0904 17.4244 10.589 17.4651 10.0735H18.9035C19.2595 10.0735 19.548 9.78493 19.548 9.42893C19.548 9.07294 19.2595 8.7844 18.9035 8.7844H17.4769V6.6217H19.2488C19.9066 6.6217 20.5248 6.87767 20.9899 7.34276C21.4548 7.80768 21.7109 8.426 21.7109 9.08368V20.4794Z" fill="#5755C4" stroke="#5755C4" stroke-width="0.2"/>
<path d="M8.15723 5.63104C8.15723 5.34234 8.26972 5.07112 8.47382 4.86684C8.67792 4.66274 8.94931 4.55029 9.23866 4.55029C9.83486 4.55029 10.3201 5.03554 10.3201 5.63173C10.3201 6.22809 9.83486 6.71317 9.23866 6.71317C8.88267 6.71317 8.59413 7.00166 8.59413 7.3577V8.04804C8.59413 8.40386 8.88267 8.69257 9.23866 8.69257C9.59453 8.69257 9.8832 8.40386 9.8832 8.04804V7.91311C10.8781 7.63163 11.609 6.71549 11.609 5.63173C11.609 4.32454 10.5457 3.26123 9.23798 3.26123C8.60505 3.26123 8.00989 3.50779 7.5622 3.95526C7.11476 4.40291 6.86816 4.99811 6.86816 5.63087V5.63156C6.86816 5.98755 7.1567 6.27575 7.5127 6.27575C7.86869 6.27575 8.15723 5.98704 8.15723 5.63104ZM18.9038 14.307H10.6194C10.2634 14.307 9.97489 14.5957 9.97489 14.9516C9.97489 15.3076 10.2634 15.5961 10.6194 15.5961H18.9038C19.2596 15.5961 19.5483 15.3076 19.5483 14.9516C19.5483 14.5957 19.2596 14.307 18.9038 14.307Z" fill="#5755C4" stroke="#5755C4" stroke-width="0.2"/>
</svg>
