<svg width="162" height="162" viewBox="0 0 162 162" fill="none" xmlns="http://www.w3.org/2000/svg">
<g clip-path="url(#clip0_1341_33738)">
<path d="M60.7503 66.273C63.8004 66.273 66.273 63.8004 66.273 60.7503C66.273 57.7001 63.8004 55.2275 60.7503 55.2275C57.7001 55.2275 55.2275 57.7001 55.2275 60.7503C55.2275 63.8004 57.7001 66.273 60.7503 66.273Z" fill="#8389BE" stroke="#8389BE"/>
<path d="M101.25 66.273C104.3 66.273 106.773 63.8004 106.773 60.7503C106.773 57.7001 104.3 55.2275 101.25 55.2275C98.2001 55.2275 95.7275 57.7001 95.7275 60.7503C95.7275 63.8004 98.2001 66.273 101.25 66.273Z" fill="#8389BE" stroke="#8389BE"/>
<path d="M144.362 86.6756L134.771 82.2556C135.879 78.6419 136.483 74.7852 136.483 70.691C136.483 68.6292 136.314 66.5416 136.016 64.4448L144.362 60.5973C144.806 60.3927 145.15 60.0204 145.318 59.5623C145.487 59.1042 145.467 58.5977 145.263 58.1544C145.058 57.7111 144.686 57.3672 144.228 57.1984C143.769 57.0296 143.263 57.0496 142.82 57.2542L135.344 60.6986C134.23 55.6968 132.321 50.7024 129.742 45.9455C136.095 32.3081 135.754 5.90574 126.857 1.01812C119.567 -2.97297 102.841 5.77871 92.7488 16.1762C88.906 15.2179 84.9607 14.7314 81.0002 14.7274C76.9538 14.7274 73.0272 15.2428 69.2515 16.1762C59.1596 5.77687 42.4257 -2.97665 35.1394 1.01812C26.2441 5.90389 25.9036 32.3081 32.2584 45.9455C29.6774 50.7024 27.7703 55.6968 26.6565 60.6986L19.1787 57.2542C18.738 57.0663 18.2413 57.0577 17.7942 57.2302C17.3472 57.4027 16.985 57.7426 16.7847 58.1779C16.5843 58.6131 16.5615 59.1094 16.7212 59.5611C16.8809 60.0129 17.2104 60.3846 17.6397 60.5973L25.9846 64.4448C25.6811 66.5132 25.5243 68.6005 25.5151 70.691C25.5151 74.7852 26.119 78.6419 27.229 82.2556L17.6379 86.6756C17.2043 86.886 16.8705 87.258 16.7082 87.7117C16.5458 88.1655 16.5679 88.6648 16.7696 89.1024C16.9713 89.5401 17.3366 89.8812 17.7871 90.0525C18.2375 90.2239 18.7372 90.2117 19.1787 90.0187L28.4937 85.7257C32.124 94.2749 38.9869 101.175 48.6701 105.849C37.5915 115.305 31.2956 128.893 31.2956 143.591V150.955C31.2956 157.046 36.2495 162 42.3411 162H119.659C125.751 162 130.705 157.046 130.705 150.955V143.591C130.705 130.307 125.532 117.827 116.138 108.454C115.248 107.563 114.297 106.699 113.314 105.858C123.004 101.182 129.874 94.2804 133.505 85.7257L142.82 90.0187C143.039 90.1205 143.277 90.178 143.518 90.1878C143.76 90.1976 144.001 90.1596 144.228 90.076C144.455 89.9924 144.663 89.8647 144.841 89.7004C145.018 89.5361 145.162 89.3383 145.263 89.1185C145.364 88.8989 145.421 88.6615 145.43 88.4198C145.44 88.1782 145.401 87.937 145.318 87.7102C145.234 87.4833 145.106 87.2752 144.942 87.0977C144.778 86.9202 144.582 86.7767 144.362 86.6756ZM125.088 4.24708C130.747 7.35453 132.522 28.3519 127.411 42.0023C125.966 39.7479 124.381 37.5861 122.665 35.5296C125.464 28.4458 125.517 15.5318 120.436 12.7447C116.099 10.3607 107.719 15.1968 102.876 19.8451C100.893 18.8898 98.8523 18.0598 96.7657 17.3599C106.368 8.16269 120.23 1.56487 125.086 4.24524L125.088 4.24708ZM119.867 32.3909C115.898 28.2231 111.338 24.5689 106.311 21.6805C111.167 17.3544 117.056 15.079 118.663 15.9737C120.729 17.1058 121.752 25.8299 119.867 32.3909ZM36.9104 4.24708C41.7759 1.56855 55.6324 8.16453 65.2346 17.358C63.1474 18.0585 61.1061 18.8892 59.1228 19.8451C54.2757 15.195 45.8922 10.3644 41.566 12.7447C36.4851 15.53 36.5367 28.444 39.3349 35.5296C37.6195 37.5861 36.0344 39.7479 34.589 42.0023C29.4805 28.3501 31.2533 7.35637 36.9104 4.24708ZM42.1312 32.3909C40.2461 25.8281 41.2715 17.1058 43.337 15.9737C44.957 15.0827 50.8332 17.3525 55.6876 21.6805C50.662 24.5689 46.1002 28.2212 42.1312 32.3909ZM59.4634 51.6763C59.8868 51.6155 60.3083 51.5456 60.7483 51.5456C65.8237 51.5456 69.9529 55.6747 69.9529 60.7501C69.9529 65.8255 65.8237 69.9546 60.7483 69.9546C55.6729 69.9546 51.5438 65.8255 51.5438 60.7501C51.5438 57.3278 53.4436 54.3714 56.2197 52.7845C57.2672 52.5139 58.3551 52.1549 59.4634 51.6763ZM58.9092 73.4892V105.81C56.3957 105.072 53.9354 104.164 51.5456 103.091V69.7521C53.5222 71.774 56.1104 73.0875 58.9092 73.4892ZM34.9774 150.955V143.591C34.9774 129.376 41.3488 116.29 52.4734 107.507C54.0253 108.12 55.6508 108.669 57.3224 109.179L44.506 127.822C44.2445 128.224 44.1506 128.713 44.2443 129.184C44.338 129.655 44.6119 130.07 45.0075 130.342C45.4032 130.614 45.8893 130.72 46.3624 130.639C46.8354 130.557 47.2579 130.294 47.5398 129.906L63.2832 107.007C64.2854 105.56 65.7743 104.523 67.478 104.084C69.1818 103.644 70.9867 103.832 72.5633 104.613C74.2104 105.443 75.4839 106.864 76.1295 108.592C76.7752 110.32 76.7454 112.227 76.0463 113.934L60.8772 150.586C59.9345 152.877 58.3314 154.836 56.2719 156.213C54.2125 157.59 51.7899 158.323 49.3126 158.318H42.3411C38.28 158.318 34.9774 155.016 34.9774 150.955ZM81.0002 112.535C81.2763 112.535 81.5432 112.526 81.8175 112.524C81.9353 113.474 82.1728 114.42 82.5539 115.342L83.6327 117.949C81.8808 117.799 80.1195 117.799 78.3676 117.949L79.4483 115.34C79.8293 114.42 80.065 113.474 80.1846 112.524C80.4571 112.526 80.7259 112.535 81.0002 112.535ZM76.744 121.874C79.5631 121.417 82.4372 121.417 85.2563 121.874L97.7211 151.995C98.7496 154.462 100.375 156.635 102.45 158.318H59.5499C61.5749 156.661 63.2317 154.532 64.2792 151.997L76.744 121.874ZM113.536 111.058C122.233 119.738 127.023 131.29 127.023 143.591V150.955C127.023 155.016 123.72 158.318 119.659 158.318H112.688C110.21 158.323 107.788 157.59 105.728 156.213C103.669 154.836 102.066 152.878 101.123 150.586L85.954 113.934C85.2549 112.227 85.2251 110.32 85.8708 108.592C86.5164 106.864 87.7899 105.443 89.437 104.613C91.0134 103.831 92.8187 103.642 94.5227 104.082C96.2268 104.521 97.7157 105.559 98.7171 107.007L114.461 129.908C114.596 130.109 114.771 130.282 114.974 130.416C115.177 130.55 115.405 130.643 115.644 130.688C115.883 130.734 116.128 130.732 116.366 130.682C116.605 130.632 116.83 130.535 117.031 130.397C117.231 130.259 117.403 130.083 117.535 129.878C117.667 129.674 117.757 129.446 117.8 129.206C117.843 128.967 117.838 128.721 117.786 128.483C117.733 128.246 117.634 128.021 117.494 127.822L104.678 109.179C106.312 108.688 107.926 108.131 109.516 107.511C110.922 108.616 112.265 109.801 113.536 111.058ZM102.535 51.6763C103.641 52.1549 104.731 52.5139 105.775 52.7845C108.557 54.3714 110.455 57.3278 110.455 60.7501C110.455 65.8255 106.326 69.9546 101.25 69.9546C96.1748 69.9546 92.0456 65.8255 92.0456 60.7501C92.0456 55.6747 96.1748 51.5456 101.25 51.5456C101.692 51.5456 102.112 51.6173 102.535 51.6763ZM103.091 105.812V73.4892C105.89 73.0873 108.478 71.7738 110.455 69.7521V103.091C108.065 104.165 105.605 105.074 103.091 105.812ZM114.137 101.252V60.7501C114.14 58.1783 113.368 55.6651 111.924 53.5374C112.765 53.5374 113.605 53.4784 114.438 53.3607C115.44 53.195 116.114 52.2506 115.95 51.2492C115.786 50.2477 114.84 49.5813 113.84 49.7286C113.625 49.7654 110.814 50.1722 107.248 49.3549C106.086 48.7416 104.836 48.3113 103.542 48.0791C101.054 46.9141 98.8703 45.186 97.1652 43.0313C96.86 42.65 96.4159 42.4056 95.9305 42.3517C95.4451 42.2978 94.9582 42.439 94.5769 42.7442C94.1955 43.0493 93.9511 43.4935 93.8972 43.9789C93.8434 44.4643 93.9845 44.9512 94.2897 45.3325C95.2654 46.5493 96.2963 47.5784 97.3566 48.4676C92.1487 50.1244 88.3638 55.0028 88.3638 60.7501C88.3638 67.2283 93.1759 72.5908 99.4092 73.4892V102.502C96.1453 99.9836 91.6277 99.4018 87.7894 101.32C86.3225 102.059 85.0401 103.117 84.0365 104.418C83.0329 105.718 82.3337 107.227 81.9906 108.833C81.3278 108.838 80.6743 108.838 80.0116 108.833C79.6679 107.227 78.9684 105.718 77.9645 104.418C76.9606 103.118 75.6779 102.06 74.2109 101.322C70.3726 99.4018 65.8531 99.9854 62.5911 102.5V73.4892C68.8262 72.5908 73.6365 67.2283 73.6365 60.7501C73.6365 55.0028 69.8516 50.1225 64.6437 48.4676C65.7675 47.5269 66.7949 46.4767 67.7106 45.3325C68.0158 44.9512 68.1569 44.4643 68.1031 43.9789C68.0492 43.4935 67.8048 43.0493 67.4234 42.7442C67.0421 42.439 66.5552 42.2978 66.0698 42.3517C65.5844 42.4056 65.1403 42.65 64.8351 43.0313C63.1287 45.1874 60.9435 46.9163 58.4527 48.081C57.1647 48.3122 55.9198 48.74 54.7617 49.3493C51.1903 50.1704 48.3756 49.7617 48.162 49.7286C47.6825 49.6537 47.1929 49.7711 46.7995 50.0553C46.4062 50.3396 46.141 50.7677 46.0617 51.2464C45.9823 51.7252 46.0952 52.2159 46.3758 52.6118C46.6564 53.0078 47.082 53.2769 47.56 53.3607C47.6926 53.3828 48.637 53.5245 50.0766 53.5374C48.6318 55.6651 47.8608 58.1783 47.8638 60.7501V101.25C40.2848 97.0252 34.8559 91.2061 31.8718 84.1701L43.1106 78.9898C43.5399 78.7771 43.8694 78.4054 44.0291 77.9537C44.1888 77.5019 44.166 77.0057 43.9656 76.5704C43.7653 76.1352 43.4031 75.7952 42.956 75.6227C42.509 75.4502 42.0123 75.4588 41.5716 75.6467L30.62 80.6927C29.6677 77.4444 29.1884 74.0759 29.197 70.691C29.197 69.1575 29.289 67.6075 29.4676 66.0482L41.5716 71.6262C42.0131 71.8192 42.5128 71.8313 42.9632 71.66C43.4137 71.4887 43.779 71.1476 43.9807 70.7099C44.1824 70.2723 44.2045 69.7729 44.0421 69.3192C43.8798 68.8655 43.546 68.4935 43.1124 68.2831L30.0788 62.2762C33.6023 44.7894 47.5748 27.1903 66.2729 20.8705V27.6137C66.2729 28.102 66.4668 28.5702 66.8121 28.9155C67.1573 29.2607 67.6255 29.4546 68.1138 29.4546C68.602 29.4546 69.0703 29.2607 69.4155 28.9155C69.7607 28.5702 69.9547 28.102 69.9547 27.6137V19.7825C72.97 19.0308 76.0542 18.5891 79.1592 18.4644V25.7728C79.1592 26.2611 79.3532 26.7293 79.6984 27.0745C80.0437 27.4198 80.5119 27.6137 81.0002 27.6137C81.4884 27.6137 81.9566 27.4198 82.3019 27.0745C82.6471 26.7293 82.8411 26.2611 82.8411 25.7728V18.4644C85.9982 18.5933 89.0744 19.0406 92.0456 19.7825V27.6137C92.0456 28.102 92.2396 28.5702 92.5848 28.9155C92.93 29.2607 93.3983 29.4546 93.8865 29.4546C94.3748 29.4546 94.843 29.2607 95.1882 28.9155C95.5335 28.5702 95.7274 28.102 95.7274 27.6137V20.8705C114.424 27.1903 128.396 44.7894 131.922 62.2762L118.888 68.2831C118.668 68.3844 118.471 68.5279 118.307 68.7055C118.143 68.8831 118.015 69.0913 117.932 69.3181C117.848 69.5449 117.81 69.786 117.82 70.0276C117.829 70.2692 117.886 70.5065 117.988 70.726C118.089 70.9455 118.233 71.1429 118.41 71.3069C118.588 71.471 118.796 71.5984 119.023 71.682C119.25 71.7656 119.491 71.8037 119.732 71.7941C119.974 71.7845 120.211 71.7275 120.431 71.6262L132.531 66.0482C132.709 67.6075 132.803 69.1575 132.803 70.691C132.803 74.2182 132.304 77.5539 131.38 80.6927L120.431 75.6467C120.211 75.5454 119.974 75.4884 119.732 75.4788C119.491 75.4692 119.25 75.5073 119.023 75.5909C118.796 75.6745 118.588 75.8019 118.41 75.966C118.233 76.13 118.089 76.3274 117.988 76.5469C117.886 76.7664 117.829 77.0038 117.82 77.2453C117.81 77.4869 117.848 77.728 117.932 77.9548C118.015 78.1817 118.143 78.3898 118.307 78.5674C118.471 78.745 118.668 78.8885 118.888 78.9898L130.127 84.1701C127.144 91.2061 121.714 97.0271 114.137 101.252Z" fill="#8389BE" stroke="#8389BE"/>
<path d="M66.273 86.5227V92.0454C66.2725 92.4137 66.3825 92.7737 66.5888 93.0788C66.7951 93.3839 67.0882 93.6202 67.4302 93.757C67.7721 93.8937 68.1473 93.9248 68.5071 93.8461C68.8669 93.7675 69.1948 93.5827 69.4485 93.3156C70.5531 92.1522 74.6491 88.3636 81.0002 88.3636C87.3514 88.3636 91.4474 92.154 92.5519 93.3156C92.8056 93.5827 93.1335 93.7675 93.4934 93.8461C93.8532 93.9248 94.2283 93.8937 94.5703 93.757C94.9123 93.6202 95.2053 93.3839 95.4116 93.0788C95.6179 92.7737 95.728 92.4137 95.7275 92.0454V86.5227C95.7275 78.4024 89.1205 71.7954 81.0002 71.7954C72.88 71.7954 66.273 78.4024 66.273 86.5227ZM92.0457 86.5227V88.1261C89.5476 86.438 85.794 84.6818 81.0002 84.6818C76.2065 84.6818 72.4529 86.438 69.9548 88.1261V86.5227C69.9548 80.4311 74.9087 75.4772 81.0002 75.4772C87.0918 75.4772 92.0457 80.4311 92.0457 86.5227Z" fill="#8389BE" stroke="#8389BE"/>
</g>
<defs>
<clipPath id="clip0_1341_33738">
<rect width="162" height="162" fill="white"/>
</clipPath>
</defs>
</svg>
