<svg width="18" height="18" viewBox="0 0 18 18" fill="none" xmlns="http://www.w3.org/2000/svg">
<path fill-rule="evenodd" clip-rule="evenodd" d="M17.8284 3.38399C18.6017 1.37368 16.6264 -0.601646 14.6161 0.171635L1.59336 5.18025C-0.526254 5.99543 -0.532734 8.99222 1.58364 9.81669L5.82439 11.4687C5.98476 11.5311 6.1304 11.6262 6.2521 11.7479C6.3738 11.8696 6.46889 12.0153 6.53136 12.1756L8.18334 16.4164C9.00781 18.5327 12.0044 18.5263 12.8198 16.4066L17.8284 3.38399ZM2.07807 6.44039L15.1008 1.43156C16.0192 1.0784 16.9217 1.98085 16.5685 2.8995L11.5597 15.9219C11.187 16.8905 9.81782 16.8933 9.44111 15.9263L7.78914 11.6855C7.74189 11.5642 7.68557 11.4466 7.62066 11.3337L12.6271 6.32721C12.7537 6.2006 12.8249 6.02889 12.8249 5.84985C12.8249 5.6708 12.7537 5.49909 12.6271 5.37249C12.5005 5.24588 12.3288 5.17476 12.1498 5.17476C11.9707 5.17476 11.799 5.24588 11.6724 5.37249L6.66615 10.3794C6.55383 10.3146 6.43632 10.2584 6.31407 10.2107L2.07332 8.55871C1.10628 8.182 1.10931 6.81278 2.07785 6.44018L2.07807 6.44039Z" fill="#1A1A1A"/>
</svg>
