<svg viewBox="0 0 12 8" xmlns="http://www.w3.org/2000/svg" xmlns:xlink="http://www.w3.org/1999/xlink" width="12.000000" height="8.000000" fill="none" customFrame="#000000">
	<rect id="Frame 69" width="12.000000" height="8.000000" x="0.000000" y="0.000000" />
	<path id="Vector" d="M8.46645 1.1334C8.51238 1.17803 8.54948 1.23172 8.57563 1.29142C8.60178 1.35111 8.61647 1.41563 8.61886 1.48129C8.62125 1.54695 8.61129 1.61246 8.58955 1.67407C8.56781 1.73569 8.53471 1.7922 8.49216 1.84037L4.2034 6.70166C4.12174 6.79565 4.02232 6.87073 3.91147 6.9221C3.80062 6.97347 3.68079 7 3.55963 7C3.43847 7 3.31864 6.97347 3.20779 6.9221C3.09694 6.87073 2.99752 6.79565 2.91586 6.70166L1.12693 4.67425C1.04106 4.57692 0.995525 4.44775 1.00035 4.31517C1.00517 4.18259 1.05995 4.05745 1.15265 3.96728C1.24534 3.87711 1.36835 3.8293 1.49462 3.83436C1.62088 3.83942 1.74006 3.89695 1.82594 3.99428L3.55963 5.96019L7.79316 1.1604C7.83566 1.11217 7.8868 1.07322 7.94365 1.04576C8.00049 1.0183 8.06194 1.00287 8.12447 1.00036C8.187 0.997857 8.24939 1.00832 8.30807 1.03114C8.36675 1.05397 8.42057 1.08872 8.46645 1.1334ZM10.8472 1.1334C10.8932 1.17803 10.9303 1.23172 10.9564 1.29142C10.9826 1.35111 10.9973 1.41563 10.9997 1.48129C11.002 1.54695 10.9921 1.61246 10.9703 1.67407C10.9486 1.73569 10.9155 1.7922 10.873 1.84037L6.58467 6.70166C6.49879 6.79899 6.37961 6.85651 6.25335 6.86157C6.12708 6.86664 6.00407 6.81882 5.91138 6.72866C5.81869 6.63849 5.7639 6.51335 5.75908 6.38076C5.75426 6.24818 5.79979 6.11902 5.88567 6.02169L10.1744 1.1604C10.2602 1.06315 10.3793 1.00568 10.5055 1.00061C10.6317 0.995551 10.7546 1.04332 10.8472 1.1334Z" fill="rgb(87,85,196)" fill-rule="evenodd" />
</svg>
