<svg viewBox="0 0 10 11" xmlns="http://www.w3.org/2000/svg" xmlns:xlink="http://www.w3.org/1999/xlink" width="10.000000" height="11.000000" fill="none" customFrame="#000000">
	<rect id="Frame 124" width="10.000000" height="11.000000" x="0.000000" y="0.000000" />
	<path id="Vector" d="M7.46645 2.6334C7.51238 2.67803 7.54948 2.73172 7.57563 2.79142C7.60178 2.85111 7.61647 2.91563 7.61886 2.98129C7.62125 3.04695 7.61129 3.11246 7.58955 3.17407C7.56781 3.23569 7.53471 3.2922 7.49216 3.34037L3.2034 8.20166C3.12174 8.29565 3.02232 8.37073 2.91147 8.4221C2.80062 8.47347 2.68079 8.5 2.55963 8.5C2.43847 8.5 2.31864 8.47347 2.20779 8.4221C2.09694 8.37073 1.99752 8.29565 1.91586 8.20166L0.126934 6.17425C0.0410599 6.07692 -0.00447463 5.94775 0.00034742 5.81517C0.00516946 5.68259 0.059953 5.55745 0.152646 5.46728C0.24534 5.37711 0.36835 5.3293 0.494616 5.33436C0.620882 5.33942 0.740061 5.39695 0.825935 5.49428L2.55963 7.46019L6.79316 2.6604C6.83566 2.61217 6.8868 2.57322 6.94365 2.54576C7.00049 2.5183 7.06194 2.50287 7.12447 2.50036C7.187 2.49786 7.24939 2.50832 7.30807 2.53114C7.36675 2.55397 7.42057 2.58872 7.46645 2.6334ZM9.84724 2.6334C9.89317 2.67803 9.93027 2.73172 9.95642 2.79142C9.98257 2.85111 9.99726 2.91563 9.99965 2.98129C10.002 3.04695 9.99208 3.11246 9.97034 3.17407C9.9486 3.23569 9.91551 3.2922 9.87295 3.34037L5.58467 8.20166C5.49879 8.29899 5.37961 8.35651 5.25335 8.36157C5.12708 8.36664 5.00407 8.31882 4.91138 8.22865C4.81869 8.13849 4.7639 8.01335 4.75908 7.88076C4.75426 7.74818 4.79979 7.61902 4.88567 7.52169L9.17443 2.6604C9.26025 2.56315 9.37934 2.50568 9.50551 2.50061C9.63168 2.49555 9.7546 2.54332 9.84724 2.6334Z" fill="rgb(87,85,196)" fill-rule="evenodd" />
</svg>
